<svg width="301" height="259" viewBox="0 0 301 259" fill="none" xmlns="http://www.w3.org/2000/svg">
<path d="M81.8785 51.0978C81.8785 70.3444 104.797 101.54 118.829 118.829C101.528 104.797 70.3444 81.8785 51.0978 81.8785C23.356 81.8785 0 103.197 0 129.5C0 155.803 23.356 177.121 51.0978 177.121C70.3444 177.121 101.54 154.203 118.829 140.171C104.797 157.472 81.8785 188.656 81.8785 207.902C81.8785 235.644 103.197 259 129.5 259C155.803 259 177.121 235.644 177.121 207.902C177.121 188.656 154.203 157.46 140.171 140.171C157.472 154.203 188.656 177.121 207.902 177.121C235.644 177.121 259 155.803 259 129.5C259 103.197 235.644 81.8785 207.902 81.8785C188.656 81.8785 157.46 104.797 140.171 118.829C154.203 101.528 177.121 70.3444 177.121 51.0978C177.121 23.356 155.803 0 129.5 0C103.197 0 81.8785 23.356 81.8785 51.0978Z" fill="#F2F2F2"/>
<path d="M257.233 14.4292C257.233 19.1108 262.896 26.6988 266.363 30.9044C262.088 27.4912 254.382 21.9164 249.626 21.9164C242.771 21.9164 237 27.102 237 33.5C237 39.898 242.771 45.0836 249.626 45.0836C254.382 45.0836 262.091 39.5088 266.363 36.0956C262.896 40.304 257.233 47.8892 257.233 52.5708C257.233 59.3188 262.5 65 269 65C275.5 65 280.767 59.3188 280.767 52.5708C280.767 47.8892 275.104 40.3012 271.637 36.0956C275.912 39.5088 283.618 45.0836 288.374 45.0836C295.229 45.0836 301 39.898 301 33.5C301 27.102 295.229 21.9164 288.374 21.9164C283.618 21.9164 275.909 27.4912 271.637 30.9044C275.104 26.696 280.767 19.1108 280.767 14.4292C280.767 7.6812 275.5 2 269 2C262.5 2 257.233 7.6812 257.233 14.4292Z" fill="#F2F2F2"/>
</svg>
