<svg width="1285" height="226" viewBox="0 0 1285 226" fill="none" xmlns="http://www.w3.org/2000/svg">
<path d="M1280.65 109.42C1282.18 108.653 1283.26 108.807 1283.87 109.88C1284.64 110.8 1284.87 112.103 1284.56 113.79C1284.41 115.477 1283.79 117.393 1282.72 119.54C1281.8 121.533 1280.42 123.143 1278.58 124.37C1272.75 127.897 1267.16 131.5 1261.79 135.18C1256.58 138.86 1251.59 142.693 1246.84 146.68C1245 148.06 1243.39 150.053 1242.01 152.66C1239.1 158.947 1235.49 166 1231.2 173.82C1227.06 181.64 1222.61 189.153 1217.86 196.36C1213.11 203.72 1208.28 210.083 1203.37 215.45C1198.62 220.817 1194.09 224.19 1189.8 225.57C1187.96 226.183 1185.2 226.03 1181.52 225.11C1177.69 224.19 1174.24 222.58 1171.17 220.28C1167.95 217.98 1165.65 215.067 1164.27 211.54C1162.89 208.013 1163.58 204.027 1166.34 199.58C1169.87 193.907 1174.7 188.08 1180.83 182.1C1186.96 175.967 1193.1 170.293 1199.23 165.08C1205.36 159.867 1210.81 155.267 1215.56 151.28C1220.47 147.293 1223.3 144.533 1224.07 143C1225.76 139.933 1227.37 136.407 1228.9 132.42C1230.43 128.28 1231.74 124.677 1232.81 121.61C1230.66 124.217 1228.21 127.13 1225.45 130.35C1222.84 133.57 1220.01 136.79 1216.94 140.01C1214.03 143.23 1211.04 146.22 1207.97 148.98C1204.9 151.74 1201.99 154.04 1199.23 155.88C1197.54 156.953 1195.32 157.26 1192.56 156.8C1189.8 156.34 1187.19 155.42 1184.74 154.04C1182.13 152.66 1179.99 150.973 1178.3 148.98C1176.61 146.833 1176 144.687 1176.46 142.54C1177.53 137.02 1179.45 131.27 1182.21 125.29C1184.97 119.157 1188.19 113.33 1191.87 107.81C1195.7 102.137 1199.77 96.9233 1204.06 92.17C1208.35 87.4166 1212.65 83.5066 1216.94 80.4399C1219.7 78.4466 1222.23 77.2966 1224.53 76.9899C1226.83 76.6833 1228.98 76.9133 1230.97 77.6799C1232.96 78.2933 1234.88 79.29 1236.72 80.67C1238.71 82.05 1240.71 83.5066 1242.7 85.0399C1243.31 84.2733 1244.16 83.0466 1245.23 81.36C1246.46 79.6733 1247.38 78.6 1247.99 78.14C1249.37 77.0666 1251.06 76.6066 1253.05 76.76C1255.2 76.76 1257.19 77.22 1259.03 78.14C1261.02 78.9066 1262.63 79.98 1263.86 81.36C1265.09 82.5866 1265.62 83.8899 1265.47 85.2699C1264.86 88.4899 1264.01 92.0166 1262.94 95.8499C1261.87 99.5299 1260.72 103.287 1259.49 107.12C1258.42 110.953 1257.27 114.633 1256.04 118.16C1254.97 121.687 1254.05 124.753 1253.28 127.36C1258.95 123.373 1263.86 120 1268 117.24C1272.29 114.48 1276.51 111.873 1280.65 109.42ZM1177.38 210.62C1182.44 206.94 1187.5 201.803 1192.56 195.21C1197.77 188.617 1202.3 182.1 1206.13 175.66C1203.37 178.42 1200.3 181.487 1196.93 184.86C1193.71 188.233 1190.64 191.53 1187.73 194.75C1184.82 198.123 1182.44 201.19 1180.6 203.95C1178.61 206.863 1177.53 209.087 1177.38 210.62ZM1231.66 102.06C1232.43 100.833 1233.04 99.4533 1233.5 97.92C1233.96 96.2333 1234.11 94.8533 1233.96 93.78C1233.96 92.7066 1233.5 92.0933 1232.58 91.94C1231.81 91.7866 1230.43 92.5533 1228.44 94.2399C1225.37 96.8466 1222.31 99.99 1219.24 103.67C1216.33 107.197 1213.57 110.877 1210.96 114.71C1208.35 118.543 1206.05 122.223 1204.06 125.75C1202.07 129.277 1200.61 132.343 1199.69 134.95C1199.38 136.33 1199.69 137.02 1200.61 137.02C1201.53 137.02 1203.06 136.1 1205.21 134.26C1207.51 132.42 1210.04 129.89 1212.8 126.67C1215.71 123.45 1218.78 119.77 1222 115.63C1225.37 111.337 1228.59 106.813 1231.66 102.06Z" fill="#FF543C" fill-opacity="0.05"/>
<path d="M1192.8 108.96C1193.26 107.887 1194.02 107.427 1195.1 107.58C1196.32 107.733 1197.47 108.117 1198.55 108.73C1199.77 109.343 1200.77 110.11 1201.54 111.03C1202.3 111.797 1202.61 112.41 1202.46 112.87C1200.31 117.317 1197.63 122.223 1194.41 127.59C1191.34 132.957 1187.97 138.17 1184.29 143.23C1180.76 148.137 1177.08 152.583 1173.25 156.57C1169.57 160.557 1166.12 163.393 1162.9 165.08C1160.75 166.153 1158.3 166.613 1155.54 166.46C1152.78 166.153 1150.09 165.54 1147.49 164.62C1144.88 163.7 1142.58 162.473 1140.59 160.94C1138.59 159.407 1137.44 157.873 1137.14 156.34C1136.52 153.733 1136.52 150.207 1137.14 145.76C1137.75 141.313 1138.59 136.867 1139.67 132.42C1140.89 127.973 1142.04 123.987 1143.12 120.46C1144.34 116.78 1145.19 114.403 1145.65 113.33C1142.58 115.937 1139.13 119.693 1135.3 124.6C1131.46 129.507 1127.63 134.72 1123.8 140.24C1120.12 145.76 1116.67 151.203 1113.45 156.57C1110.38 161.937 1108 166.383 1106.32 169.91C1105.55 171.29 1104.02 172.057 1101.72 172.21C1099.42 172.21 1097.12 171.827 1094.82 171.06C1092.52 170.293 1090.52 169.22 1088.84 167.84C1087 166.46 1086.31 165.08 1086.77 163.7C1087.69 160.02 1089.07 155.19 1090.91 149.21C1092.75 143.077 1094.89 136.483 1097.35 129.43C1099.8 122.223 1102.56 114.863 1105.63 107.35C1108.69 99.8366 1112.07 92.86 1115.75 86.42C1116.82 84.2733 1118.51 83.2 1120.81 83.2C1123.26 83.2 1125.64 83.7366 1127.94 84.81C1130.24 85.8833 1132.08 87.2633 1133.46 88.95C1134.99 90.6366 1135.53 92.0933 1135.07 93.3199C1133.53 96.5399 1131.85 99.8366 1130.01 103.21C1128.32 106.43 1126.63 109.497 1124.95 112.41C1123.41 115.17 1122.03 117.623 1120.81 119.77C1119.73 121.917 1119.12 123.373 1118.97 124.14C1121.42 120.613 1124.03 117.087 1126.79 113.56C1129.7 110.033 1132.54 106.737 1135.3 103.67C1138.21 100.603 1141.12 97.8433 1144.04 95.39C1146.95 92.9366 1149.79 90.8666 1152.55 89.1799C1154.39 88.1066 1156.61 87.8 1159.22 88.2599C1161.98 88.7199 1164.51 89.6399 1166.81 91.0199C1169.11 92.3999 1170.87 94.0866 1172.1 96.08C1173.48 97.92 1173.78 99.7599 1173.02 101.6C1171.79 104.667 1170.18 108.5 1168.19 113.1C1166.19 117.547 1164.28 122.3 1162.44 127.36C1160.6 132.267 1158.99 137.02 1157.61 141.62C1156.23 146.22 1155.54 150.13 1155.54 153.35C1158.45 151.663 1161.59 149.287 1164.97 146.22C1168.34 143.153 1171.64 139.627 1174.86 135.64C1178.23 131.653 1181.45 127.36 1184.52 122.76C1187.58 118.16 1190.34 113.56 1192.8 108.96Z" fill="#FF543C" fill-opacity="0.05"/>
<path d="M1106.37 107.58C1107.13 106.507 1108.05 105.97 1109.13 105.97C1110.2 105.817 1111.12 105.97 1111.89 106.43C1112.81 106.89 1113.5 107.503 1113.96 108.27C1114.57 109.037 1114.65 109.803 1114.19 110.57C1112.5 114.097 1110.05 118.697 1106.83 124.37C1103.61 130.043 1100.08 135.717 1096.25 141.39C1092.41 147.063 1088.43 152.2 1084.29 156.8C1080.3 161.4 1076.7 164.39 1073.48 165.77C1071.48 166.537 1069.18 166.767 1066.58 166.46C1063.97 166.153 1061.52 165.463 1059.22 164.39C1056.92 163.163 1055 161.63 1053.47 159.79C1051.93 157.797 1051.24 155.573 1051.4 153.12C1051.55 150.053 1052.24 145.99 1053.47 140.93C1054.54 135.717 1056.07 130.273 1058.07 124.6C1059.91 118.773 1061.98 113.1 1064.28 107.58C1066.58 101.907 1068.95 97.0766 1071.41 93.0899C1072.17 91.8632 1073.71 91.2499 1076.01 91.2499C1078.46 91.2499 1080.84 91.7099 1083.14 92.6299C1085.44 93.5499 1087.35 94.7766 1088.89 96.3099C1090.42 97.8432 1090.8 99.4532 1090.04 101.14C1082.83 114.94 1077.92 125.75 1075.32 133.57C1072.71 141.237 1071.87 146.22 1072.79 148.52C1073.4 150.207 1074.7 150.437 1076.7 149.21C1078.69 147.83 1081.14 145.3 1084.06 141.62C1087.12 137.94 1090.57 133.187 1094.41 127.36C1098.24 121.533 1102.23 114.94 1106.37 107.58ZM1091.88 83.4299C1090.96 84.6565 1089.58 85.3466 1087.74 85.4999C1086.05 85.6532 1084.29 85.4999 1082.45 85.0399C1080.76 84.4265 1079.23 83.5832 1077.85 82.5099C1076.62 81.4366 1076.08 80.2866 1076.24 79.0599C1076.54 76.9132 1077 74.6899 1077.62 72.3899C1078.38 69.9366 1079.15 67.7132 1079.92 65.7199C1080.68 63.5732 1081.45 61.6565 1082.22 59.9699C1082.98 58.2832 1083.6 56.9799 1084.06 56.0599C1084.98 54.6799 1086.66 53.9899 1089.12 53.9899C1091.57 53.8366 1093.95 54.2199 1096.25 55.1399C1098.7 56.0599 1100.69 57.2866 1102.23 58.8199C1103.76 60.3532 1104.07 61.8865 1103.15 63.4199C1102.69 64.3399 1101.92 65.7199 1100.85 67.5599C1099.93 69.2466 1098.93 71.0866 1097.86 73.0799C1096.78 74.9199 1095.71 76.7599 1094.64 78.5999C1093.56 80.4399 1092.64 82.0499 1091.88 83.4299Z" fill="#FF543C" fill-opacity="0.05"/>
<path d="M1071.82 26.1599C1073.82 25.0866 1076.19 25.0099 1078.95 25.9299C1081.71 26.6966 1084.17 27.9999 1086.31 29.8399C1088.61 31.5266 1090.22 33.4432 1091.14 35.5899C1092.06 37.5832 1091.76 39.1932 1090.22 40.4199C1084.09 45.1732 1077.96 52.3032 1071.82 61.8099C1065.84 71.1632 1060.32 81.5132 1055.26 92.8599C1050.2 104.207 1045.83 115.86 1042.15 127.82C1038.63 139.78 1036.25 150.743 1035.02 160.71C1033.95 170.677 1034.26 178.957 1035.94 185.55C1037.78 191.99 1041.46 195.44 1046.98 195.9C1045.76 197.28 1043.92 198.123 1041.46 198.43C1039.01 198.89 1036.33 198.583 1033.41 197.51C1030.65 196.59 1027.89 194.827 1025.13 192.22C1022.53 189.613 1020.38 186.087 1018.69 181.64C1017.01 177.193 1016.01 171.827 1015.7 165.54C1015.4 159.1 1016.24 151.51 1018.23 142.77C1018.23 142.157 1018.16 141.85 1018 141.85C1017.85 141.697 1017.62 141.927 1017.31 142.54C1016.09 144.687 1014.71 146.987 1013.17 149.44C1011.64 151.893 1009.95 154.27 1008.11 156.57C1006.43 158.717 1004.74 160.633 1003.05 162.32C1001.52 164.007 1000.14 165.08 998.912 165.54C997.072 166.153 994.849 166.383 992.242 166.23C989.789 166.077 987.412 165.54 985.112 164.62C982.659 163.547 980.589 162.09 978.902 160.25C977.215 158.41 976.295 156.11 976.142 153.35C975.989 149.67 976.449 145.3 977.522 140.24C978.442 135.18 979.899 129.89 981.892 124.37C983.732 118.85 986.032 113.33 988.792 107.81C991.552 102.29 994.542 97.3832 997.762 93.0899C1001.14 88.6432 1004.66 85.0399 1008.34 82.2799C1012.18 79.3666 1016.09 77.7566 1020.07 77.4499C1023.14 77.2966 1025.98 77.8332 1028.58 79.0599C1031.34 80.2866 1033.95 81.5132 1036.4 82.7399C1037.02 81.0532 1038.09 78.6766 1039.62 75.6099C1041.16 72.3899 1042.92 68.8632 1044.91 65.0299C1046.91 61.1966 1049.05 57.2099 1051.35 53.0699C1053.81 48.9299 1056.18 45.0199 1058.48 41.3399C1060.94 37.6599 1063.31 34.5166 1065.61 31.9099C1067.91 29.1499 1069.98 27.2332 1071.82 26.1599ZM1027.89 99.5299C1028.51 97.5366 1028.51 95.9266 1027.89 94.6999C1027.43 93.3199 1026.05 93.0132 1023.75 93.7799C1021.61 94.5466 1019.31 96.3099 1016.85 99.0699C1014.55 101.83 1012.25 105.127 1009.95 108.96C1007.65 112.64 1005.51 116.55 1003.51 120.69C1001.67 124.83 1000.14 128.74 998.912 132.42C997.839 135.947 997.149 139.013 996.842 141.62C996.689 144.227 997.225 145.76 998.452 146.22C999.065 146.527 1000.22 145.76 1001.9 143.92C1003.59 142.08 1005.43 139.627 1007.42 136.56C1009.57 133.493 1011.79 130.12 1014.09 126.44C1016.39 122.607 1018.46 118.927 1020.3 115.4C1022.3 111.72 1023.98 108.5 1025.36 105.74C1026.74 102.827 1027.59 100.757 1027.89 99.5299Z" fill="#FF543C" fill-opacity="0.05"/>
<path d="M997.027 26.1599C999.02 25.0866 1001.4 25.0099 1004.16 25.9299C1006.92 26.6966 1009.37 27.9999 1011.52 29.8399C1013.82 31.5266 1015.43 33.4432 1016.35 35.5899C1017.27 37.5832 1016.96 39.1932 1015.43 40.4199C1009.29 45.1732 1003.16 52.3032 997.027 61.8099C991.047 71.1632 985.527 81.5132 980.467 92.8599C975.407 104.207 971.037 115.86 967.357 127.82C963.83 139.78 961.454 150.743 960.227 160.71C959.154 170.677 959.46 178.957 961.147 185.55C962.987 191.99 966.667 195.44 972.187 195.9C970.96 197.28 969.12 198.123 966.667 198.43C964.214 198.89 961.53 198.583 958.617 197.51C955.857 196.59 953.097 194.827 950.337 192.22C947.73 189.613 945.584 186.087 943.897 181.64C942.21 177.193 941.214 171.827 940.907 165.54C940.6 159.1 941.444 151.51 943.437 142.77C943.437 142.157 943.36 141.85 943.207 141.85C943.054 141.697 942.824 141.927 942.517 142.54C941.29 144.687 939.91 146.987 938.377 149.44C936.844 151.893 935.157 154.27 933.317 156.57C931.63 158.717 929.944 160.633 928.257 162.32C926.724 164.007 925.344 165.08 924.117 165.54C922.277 166.153 920.054 166.383 917.447 166.23C914.994 166.077 912.617 165.54 910.317 164.62C907.864 163.547 905.794 162.09 904.107 160.25C902.42 158.41 901.5 156.11 901.347 153.35C901.194 149.67 901.654 145.3 902.727 140.24C903.647 135.18 905.104 129.89 907.097 124.37C908.937 118.85 911.237 113.33 913.997 107.81C916.757 102.29 919.747 97.3832 922.967 93.0899C926.34 88.6432 929.867 85.0399 933.547 82.2799C937.38 79.3666 941.29 77.7566 945.277 77.4499C948.344 77.2966 951.18 77.8332 953.787 79.0599C956.547 80.2866 959.154 81.5132 961.607 82.7399C962.22 81.0532 963.294 78.6766 964.827 75.6099C966.36 72.3899 968.124 68.8632 970.117 65.0299C972.11 61.1966 974.257 57.2099 976.557 53.0699C979.01 48.9299 981.387 45.0199 983.687 41.3399C986.14 37.6599 988.517 34.5166 990.817 31.9099C993.117 29.1499 995.187 27.2332 997.027 26.1599ZM953.097 99.5299C953.71 97.5366 953.71 95.9266 953.097 94.6999C952.637 93.3199 951.257 93.0132 948.957 93.7799C946.81 94.5466 944.51 96.3099 942.057 99.0699C939.757 101.83 937.457 105.127 935.157 108.96C932.857 112.64 930.71 116.55 928.717 120.69C926.877 124.83 925.344 128.74 924.117 132.42C923.044 135.947 922.354 139.013 922.047 141.62C921.894 144.227 922.43 145.76 923.657 146.22C924.27 146.527 925.42 145.76 927.107 143.92C928.794 142.08 930.634 139.627 932.627 136.56C934.774 133.493 936.997 130.12 939.297 126.44C941.597 122.607 943.667 118.927 945.507 115.4C947.5 111.72 949.187 108.5 950.567 105.74C951.947 102.827 952.79 100.757 953.097 99.5299Z" fill="#FF543C" fill-opacity="0.05"/>
<path d="M915.988 105.74C916.602 105.127 917.368 104.897 918.288 105.05C919.362 105.203 920.358 105.587 921.278 106.2C922.198 106.813 922.888 107.657 923.348 108.73C923.808 109.65 923.732 110.647 923.118 111.72C921.125 117.7 918.288 123.68 914.608 129.66C911.082 135.487 907.018 141.007 902.418 146.22C897.818 151.433 892.988 156.187 887.928 160.48C882.868 164.773 877.885 168.3 872.978 171.06C870.678 172.287 868.225 172.747 865.618 172.44C863.012 172.133 860.405 171.443 857.798 170.37C855.192 169.143 852.815 167.763 850.668 166.23C848.522 164.697 846.758 163.24 845.378 161.86C842.465 158.793 840.855 154.73 840.548 149.67C840.242 144.457 840.855 138.86 842.388 132.88C843.768 126.9 845.915 120.69 848.828 114.25C851.742 107.81 854.962 101.753 858.488 96.0799C862.168 90.4065 866.002 85.4232 869.988 81.1299C873.975 76.8365 877.732 73.6932 881.258 71.6998C883.405 70.6265 885.398 70.0898 887.238 70.0898C889.078 69.9365 890.995 70.2432 892.988 71.0098C894.982 71.6232 896.975 72.6198 898.968 73.9999C901.115 75.2265 903.492 76.6065 906.098 78.1398C909.778 80.4399 911.465 83.3532 911.158 86.8798C911.158 88.5665 910.468 91.5565 909.088 95.8498C907.862 100.143 906.022 104.667 903.568 109.42C901.268 114.02 898.355 118.39 894.828 122.53C891.455 126.517 887.622 129.2 883.328 130.58C880.262 131.347 877.578 131.577 875.278 131.27C872.978 130.963 870.448 130.197 867.688 128.97C866.922 130.503 866.078 132.803 865.158 135.87C864.238 138.783 863.548 141.773 863.088 144.84C862.628 147.907 862.475 150.667 862.628 153.12C862.782 155.42 863.702 156.723 865.388 157.03C867.842 157.49 871.292 156.187 875.738 153.12C880.338 150.053 885.092 146.067 889.998 141.16C894.905 136.1 899.735 130.427 904.488 124.14C909.242 117.853 913.075 111.72 915.988 105.74ZM892.988 88.7199C891.455 89.7932 889.462 91.8632 887.008 94.9298C884.708 97.8432 882.408 100.987 880.108 104.36C877.962 107.733 876.045 110.877 874.358 113.79C872.825 116.703 872.058 118.543 872.058 119.31C874.818 119.77 877.348 118.927 879.648 116.78C882.102 114.633 884.248 111.95 886.088 108.73C888.082 105.357 889.615 101.83 890.688 98.1498C891.915 94.4698 892.682 91.3265 892.988 88.7199Z" fill="#FF543C" fill-opacity="0.05"/>
<path d="M714.1 25.0099C710.267 25.0099 705.897 26.6965 700.99 30.0699C696.083 33.4432 691.1 37.9665 686.04 43.6399C681.133 49.1599 676.303 55.5232 671.55 62.7299C666.797 69.7832 662.657 76.9899 659.13 84.3499C655.603 91.7099 652.92 98.8399 651.08 105.74C649.24 112.64 648.627 118.697 649.24 123.91C649.393 125.903 650.007 127.667 651.08 129.2C652.307 130.58 653.763 131.577 655.45 132.19C657.137 132.803 658.977 133.033 660.97 132.88C663.117 132.573 665.34 131.807 667.64 130.58C666.72 132.88 664.803 134.797 661.89 136.33C658.977 137.863 655.68 138.783 652 139.09C648.473 139.397 644.87 139.09 641.19 138.17C637.51 137.097 634.367 135.18 631.76 132.42C629.307 129.66 627.697 125.98 626.93 121.38C626.163 116.627 626.93 110.8 629.23 103.9C631.377 97.1532 634.213 90.1765 637.74 82.9699C641.267 75.6099 645.253 68.5565 649.7 61.8099C654.3 54.9099 659.283 48.4699 664.65 42.4899C670.017 36.5099 675.613 31.2965 681.44 26.8499C687.42 22.2499 693.477 18.7232 699.61 16.2699C705.743 13.8165 711.877 12.6665 718.01 12.8199C723.99 13.1265 728.513 14.7365 731.58 17.6499C734.647 20.5632 736.717 24.3965 737.79 29.1499C738.863 33.7499 739.017 39.1165 738.25 45.2499C737.637 51.2299 736.487 57.4399 734.8 63.8799C733.113 70.3199 731.043 76.7599 728.59 83.1999C726.29 89.6399 724.067 95.6199 721.92 101.14C720.54 104.513 718.93 108.577 717.09 113.33C715.25 118.083 713.333 123.143 711.34 128.51C709.5 133.877 707.66 139.32 705.82 144.84C703.98 150.36 702.37 155.497 700.99 160.25C699.61 165.003 698.613 169.22 698 172.9C697.387 176.58 697.387 179.263 698 180.95C698.767 183.557 700.223 183.863 702.37 181.87C704.517 179.723 707.123 176.043 710.19 170.83C713.41 165.617 716.937 159.177 720.77 151.51C724.603 143.69 728.513 135.41 732.5 126.67C736.487 117.93 740.397 108.96 744.23 99.7599C748.063 90.5599 751.59 81.8965 754.81 73.7699C758.183 65.6432 761.097 58.3599 763.55 51.9199C766.157 45.4799 767.997 40.5732 769.07 37.1999C769.683 35.5132 770.833 34.4399 772.52 33.9799C774.36 33.5199 776.353 33.4432 778.5 33.7499C780.647 34.0565 782.87 34.7465 785.17 35.8199C787.623 36.8932 789.693 38.1199 791.38 39.4999C793.067 40.8799 794.293 42.4132 795.06 44.0999C795.827 45.6332 795.75 47.1665 794.83 48.6999C790.69 58.5132 786.933 68.6332 783.56 79.0599C780.34 89.3332 777.503 99.2999 775.05 108.96C772.75 118.62 770.833 127.667 769.3 136.1C767.767 144.533 766.617 151.817 765.85 157.95C765.237 163.93 765.083 168.53 765.39 171.75C765.697 174.97 766.54 176.12 767.92 175.2C771.447 172.747 775.51 168.453 780.11 162.32C784.863 156.187 789.693 148.98 794.6 140.7C799.66 132.267 804.643 123.143 809.55 113.33C814.61 103.363 819.21 93.3965 823.35 83.4299C827.49 73.3099 831.017 63.5732 833.93 54.2199C836.843 44.7132 838.76 36.2799 839.68 28.9199C840.753 21.4065 840.523 15.2732 838.99 10.5199C837.61 5.76654 834.62 3.0832 830.02 2.46987C832.167 0.476532 835.387 0.0165326 839.68 1.08987C844.127 2.00987 848.267 4.30986 852.1 7.98986C856.087 11.5165 859.153 16.2699 861.3 22.2499C863.6 28.0765 863.677 34.8999 861.53 42.7199C859.383 50.5399 856.01 59.8932 851.41 70.7799C846.963 81.6665 841.827 93.0132 836 104.82C830.173 116.473 823.963 128.05 817.37 139.55C810.93 150.897 804.72 161.093 798.74 170.14C792.76 179.187 787.317 186.47 782.41 191.99C777.503 197.51 773.747 200.193 771.14 200.04C767.767 199.887 764.47 199.197 761.25 197.97C758.03 196.897 755.04 195.287 752.28 193.14C749.673 191.147 747.373 188.77 745.38 186.01C743.54 183.25 742.313 180.183 741.7 176.81C741.24 174.51 741.163 171.137 741.47 166.69C741.93 162.09 742.543 157.26 743.31 152.2C744.077 147.14 744.997 142.157 746.07 137.25C747.143 132.19 748.063 127.973 748.83 124.6C746.99 128.433 744.843 133.11 742.39 138.63C739.937 144.15 737.33 149.9 734.57 155.88C731.963 161.86 729.203 167.84 726.29 173.82C723.377 179.647 720.463 184.937 717.55 189.69C714.79 194.443 711.953 198.277 709.04 201.19C706.28 204.103 703.673 205.637 701.22 205.79C697.693 205.943 694.32 205.253 691.1 203.72C688.033 202.34 685.273 200.423 682.82 197.97C680.367 195.517 678.297 192.68 676.61 189.46C674.923 186.24 673.85 182.867 673.39 179.34C673.083 176.887 673.39 173.513 674.31 169.22C675.383 164.927 676.763 160.097 678.45 154.73C680.137 149.21 682.053 143.46 684.2 137.48C686.5 131.5 688.723 125.673 690.87 120C693.17 114.327 695.317 109.113 697.31 104.36C699.303 99.4532 700.99 95.3899 702.37 92.1699C705.13 85.2699 707.967 77.9099 710.88 70.0899C713.793 62.1165 716.017 54.8332 717.55 48.2399C719.237 41.6465 719.927 36.1265 719.62 31.6799C719.313 27.2332 717.473 25.0099 714.1 25.0099Z" fill="#FF543C" fill-opacity="0.05"/>
<path d="M549.848 109.42C551.381 108.653 552.531 108.73 553.298 109.65C554.065 110.417 554.371 111.643 554.218 113.33C554.218 114.863 553.758 116.627 552.838 118.62C551.918 120.613 550.461 122.3 548.468 123.68C542.488 127.36 536.891 131.04 531.678 134.72C526.618 138.247 521.711 142.003 516.958 145.99C514.811 147.677 513.201 149.593 512.128 151.74C509.061 158.027 505.458 165.003 501.318 172.67C497.178 180.337 492.655 187.62 487.748 194.52C482.841 201.573 477.705 207.86 472.338 213.38C466.971 218.9 461.681 222.657 456.468 224.65C454.475 225.417 451.715 225.34 448.188 224.42C444.661 223.653 441.518 222.12 438.758 219.82C435.845 217.673 433.851 214.837 432.778 211.31C431.551 207.937 432.318 204.027 435.078 199.58C438.605 193.907 443.435 188.08 449.568 182.1C455.701 175.967 461.835 170.293 467.968 165.08C474.255 159.867 479.775 155.267 484.528 151.28C489.435 147.293 492.271 144.533 493.038 143C493.805 141.467 494.648 139.55 495.568 137.25C496.641 134.797 497.638 132.343 498.558 129.89C499.478 127.283 500.398 124.83 501.318 122.53C502.238 120.077 502.928 118.007 503.388 116.32C501.088 120.153 498.405 124.063 495.338 128.05C492.425 131.883 489.435 135.563 486.368 139.09C483.301 142.617 480.158 145.837 476.938 148.75C473.871 151.663 470.958 154.04 468.198 155.88C466.511 156.953 464.288 157.26 461.528 156.8C458.768 156.34 456.161 155.42 453.708 154.04C451.101 152.66 448.955 150.973 447.268 148.98C445.581 146.833 444.968 144.687 445.428 142.54C446.195 138.707 447.421 134.337 449.108 129.43C450.641 124.37 452.481 119.31 454.628 114.25C456.775 109.037 459.228 104.053 461.988 99.2999C464.748 94.5466 467.661 90.3299 470.728 86.6499C471.801 85.4233 473.488 84.9633 475.788 85.2699C478.241 85.5766 480.541 86.3433 482.688 87.5699C484.988 88.6433 486.751 90.0233 487.978 91.7099C489.205 93.3966 489.128 95.0066 487.748 96.5399C485.908 98.6866 483.608 102.06 480.848 106.66C478.241 111.26 475.865 115.86 473.718 120.46C471.571 125.06 469.961 129.047 468.888 132.42C467.968 135.793 468.198 137.327 469.578 137.02C470.958 136.713 472.951 135.103 475.558 132.19C478.165 129.277 481.078 125.673 484.298 121.38C487.518 117.087 490.891 112.41 494.418 107.35C497.945 102.137 501.241 97.1533 504.308 92.3999C507.375 87.6466 510.058 83.4299 512.358 79.7499C514.811 75.9166 516.498 73.1566 517.418 71.4699C518.338 70.0899 519.871 69.4766 522.018 69.6299C524.165 69.6299 526.388 70.1666 528.688 71.2399C530.988 72.1599 532.905 73.3866 534.438 74.9199C536.125 76.4533 536.815 77.9099 536.508 79.2899C536.048 82.5099 535.205 86.2666 533.978 90.5599C532.905 94.8533 531.678 99.2999 530.298 103.9C528.918 108.347 527.615 112.64 526.388 116.78C525.161 120.767 524.165 124.14 523.398 126.9C529.071 122.76 533.825 119.463 537.658 117.01C541.491 114.403 545.555 111.873 549.848 109.42ZM446.118 210.62C448.571 208.78 451.178 206.48 453.938 203.72C456.698 201.113 459.381 198.2 461.988 194.98C464.748 191.76 467.355 188.463 469.808 185.09C472.261 181.717 474.408 178.42 476.248 175.2C473.488 177.807 470.345 180.873 466.818 184.4C463.445 187.773 460.225 191.147 457.158 194.52C454.245 197.893 451.715 201.037 449.568 203.95C447.421 206.863 446.271 209.087 446.118 210.62Z" fill="#FF543C" fill-opacity="0.05"/>
<path d="M440.249 110.34C448.222 105.893 454.816 103.286 460.029 102.52C465.242 101.6 470.302 102.673 475.209 105.74C472.602 106.506 469.076 108.04 464.629 110.34C460.336 112.64 455.966 115.246 451.519 118.16C447.072 121.073 443.086 123.91 439.559 126.67C436.032 129.43 433.886 131.576 433.119 133.11C432.199 134.95 430.666 137.48 428.519 140.7C426.526 143.92 424.072 147.293 421.159 150.82C418.246 154.346 415.102 157.873 411.729 161.4C408.509 164.926 405.212 167.916 401.839 170.37C398.772 172.516 395.782 173.973 392.869 174.74C389.956 175.353 387.196 174.74 384.589 172.9C381.676 170.753 380.219 168.3 380.219 165.54C380.372 162.78 381.292 159.866 382.979 156.8C384.819 153.733 387.272 150.666 390.339 147.6C393.559 144.533 396.702 141.543 399.769 138.63C402.989 135.716 405.979 133.11 408.739 130.81C411.652 128.356 413.722 126.363 414.949 124.83C416.022 123.45 417.019 121.61 417.939 119.31C419.012 116.856 419.779 114.403 420.239 111.95C420.852 109.496 421.159 107.273 421.159 105.28C421.159 103.133 420.699 101.753 419.779 101.14C415.179 102.213 410.426 105.586 405.519 111.26C400.612 116.933 395.859 123.833 391.259 131.96C386.659 139.933 382.212 148.673 377.919 158.18C373.779 167.533 370.022 176.503 366.649 185.09C363.276 193.676 360.516 201.343 358.369 208.09C356.069 214.836 354.536 219.59 353.769 222.35C353.309 224.036 351.929 224.956 349.629 225.11C347.329 225.263 344.952 224.88 342.499 223.96C339.892 223.04 337.746 221.66 336.059 219.82C334.219 218.133 333.682 216.216 334.449 214.07C335.676 210.696 337.669 205.406 340.429 198.2C343.189 191.146 346.332 183.173 349.859 174.28C353.386 165.386 357.142 156.033 361.129 146.22C365.116 136.253 368.949 126.746 372.629 117.7C376.309 108.5 379.682 100.22 382.749 92.8597C385.816 85.3464 388.192 79.5964 389.879 75.6097C390.492 73.7697 391.872 72.8498 394.019 72.8498C396.319 72.6964 398.542 73.0797 400.689 73.9997C402.989 74.7664 404.906 75.8397 406.439 77.2197C407.972 78.5997 408.432 79.9031 407.819 81.1298C407.052 82.6631 406.286 84.3497 405.519 86.1897C404.752 88.0297 403.756 90.6364 402.529 94.0097C404.062 92.7831 405.519 91.7097 406.899 90.7897C408.432 89.7164 409.889 88.9498 411.269 88.4898C412.802 87.8764 414.412 87.5697 416.099 87.5697C417.786 87.4164 419.702 87.7231 421.849 88.4898C425.529 89.7164 428.596 90.7897 431.049 91.7097C433.502 92.4764 435.419 93.5497 436.799 94.9297C438.179 96.3097 439.099 98.1497 439.559 100.45C440.172 102.75 440.402 106.046 440.249 110.34Z" fill="#FF543C" fill-opacity="0.05"/>
<path d="M358.941 110.34C366.914 105.893 373.507 103.286 378.721 102.52C383.934 101.6 388.994 102.673 393.9 105.74C391.294 106.506 387.767 108.04 383.32 110.34C379.027 112.64 374.657 115.246 370.21 118.16C365.764 121.073 361.777 123.91 358.251 126.67C354.724 129.43 352.577 131.576 351.811 133.11C350.891 134.95 349.357 137.48 347.21 140.7C345.217 143.92 342.764 147.293 339.85 150.82C336.937 154.346 333.794 157.873 330.42 161.4C327.2 164.926 323.904 167.916 320.531 170.37C317.464 172.516 314.474 173.973 311.56 174.74C308.647 175.353 305.887 174.74 303.28 172.9C300.367 170.753 298.91 168.3 298.91 165.54C299.064 162.78 299.984 159.866 301.67 156.8C303.51 153.733 305.964 150.666 309.03 147.6C312.25 144.533 315.394 141.543 318.46 138.63C321.68 135.716 324.67 133.11 327.43 130.81C330.344 128.356 332.414 126.363 333.64 124.83C334.714 123.45 335.71 121.61 336.63 119.31C337.704 116.856 338.47 114.403 338.93 111.95C339.544 109.496 339.85 107.273 339.85 105.28C339.85 103.133 339.391 101.753 338.471 101.14C333.871 102.213 329.117 105.586 324.21 111.26C319.304 116.933 314.55 123.833 309.95 131.96C305.35 139.933 300.904 148.673 296.61 158.18C292.47 167.533 288.714 176.503 285.34 185.09C281.967 193.676 279.207 201.343 277.06 208.09C274.76 214.836 273.227 219.59 272.46 222.35C272 224.036 270.62 224.956 268.32 225.11C266.02 225.263 263.644 224.88 261.19 223.96C258.584 223.04 256.437 221.66 254.75 219.82C252.91 218.133 252.374 216.216 253.14 214.07C254.367 210.696 256.36 205.406 259.12 198.2C261.88 191.146 265.024 183.173 268.55 174.28C272.077 165.386 275.834 156.033 279.82 146.22C283.807 136.253 287.64 126.746 291.32 117.7C295 108.5 298.374 100.22 301.44 92.8597C304.507 85.3464 306.884 79.5964 308.57 75.6097C309.184 73.7697 310.564 72.8498 312.71 72.8498C315.01 72.6964 317.234 73.0797 319.38 73.9997C321.68 74.7664 323.597 75.8397 325.13 77.2197C326.664 78.5997 327.124 79.9031 326.51 81.1298C325.744 82.6631 324.977 84.3497 324.21 86.1897C323.444 88.0297 322.447 90.6364 321.22 94.0097C322.754 92.7831 324.211 91.7097 325.59 90.7897C327.124 89.7164 328.58 88.9498 329.96 88.4898C331.494 87.8764 333.104 87.5697 334.79 87.5697C336.477 87.4164 338.394 87.7231 340.54 88.4898C344.22 89.7164 347.287 90.7897 349.74 91.7097C352.194 92.4764 354.11 93.5497 355.49 94.9297C356.87 96.3097 357.791 98.1497 358.251 100.45C358.864 102.75 359.094 106.046 358.941 110.34Z" fill="#FF543C" fill-opacity="0.05"/>
<path d="M297.579 101.14C298.039 100.526 298.882 100.296 300.109 100.45C301.489 100.45 302.716 100.756 303.789 101.37C305.016 101.983 305.936 102.826 306.549 103.9C307.316 104.82 307.392 105.816 306.779 106.89C303.866 111.95 300.492 117.623 296.659 123.91C292.979 130.043 288.992 136.1 284.699 142.08C280.559 148.06 276.266 153.503 271.819 158.41C267.372 163.163 263.002 166.536 258.709 168.53C256.409 169.603 253.956 169.986 251.349 169.68C248.896 169.22 246.596 168.376 244.449 167.15C242.456 165.77 240.692 164.16 239.159 162.32C237.779 160.326 237.012 158.41 236.859 156.57C236.552 154.116 236.859 150.743 237.779 146.45C238.699 142.156 239.696 138.246 240.769 134.72C238.929 136.866 236.936 139.396 234.789 142.31C232.796 145.07 230.572 148.06 228.119 151.28C225.666 154.5 223.059 157.72 220.299 160.94C217.692 164.16 214.932 167.15 212.019 169.91C210.639 171.29 208.492 171.826 205.579 171.52C202.819 171.213 200.059 170.446 197.299 169.22C194.539 167.84 192.162 166.153 190.169 164.16C188.022 162.013 187.102 159.79 187.409 157.49C187.869 151.663 189.249 145.453 191.549 138.86C193.849 132.266 196.686 125.903 200.059 119.77C203.279 113.483 206.882 107.656 210.869 102.29C215.009 96.9231 219.072 92.5531 223.059 89.1798C225.972 86.8798 228.656 85.5765 231.109 85.2698C233.562 84.9631 235.939 85.2698 238.239 86.1898C240.539 86.9565 242.839 88.1831 245.139 89.8698C247.439 91.4031 249.892 92.9365 252.499 94.4698C254.186 92.6298 255.796 90.7131 257.329 88.7198C259.016 86.5731 260.779 84.5031 262.619 82.5098C263.692 81.1298 265.379 80.5931 267.679 80.8998C270.132 81.2065 272.432 82.0498 274.579 83.4298C276.726 84.8098 278.412 86.4965 279.639 88.4898C281.019 90.3298 281.172 92.0931 280.099 93.7798C274.886 102.673 270.669 110.57 267.449 117.47C264.382 124.37 262.082 130.196 260.549 134.95C259.169 139.703 258.479 143.306 258.479 145.76C258.632 148.213 259.246 149.44 260.319 149.44C263.386 149.286 268.062 145.146 274.349 137.02C280.636 128.893 288.379 116.933 297.579 101.14ZM241.689 110.11C242.149 109.496 242.379 108.423 242.379 106.89C242.379 105.356 242.072 103.976 241.459 102.75C240.999 101.37 240.232 100.526 239.159 100.22C238.086 99.9131 236.706 100.68 235.019 102.52C231.492 105.893 228.196 109.88 225.129 114.48C222.216 119.08 219.609 123.603 217.309 128.05C215.162 132.496 213.399 136.636 212.019 140.47C210.639 144.15 209.949 146.91 209.949 148.75C211.636 147.37 213.859 145.146 216.619 142.08C219.532 138.86 222.522 135.333 225.589 131.5C228.656 127.666 231.646 123.833 234.559 120C237.472 116.166 239.849 112.87 241.689 110.11Z" fill="#FF543C" fill-opacity="0.05"/>
<path d="M105.323 100.22C101.949 101.447 97.6559 103.67 92.4426 106.89C87.3826 110.11 81.7859 114.173 75.6526 119.08C69.6726 123.833 63.3859 129.277 56.7926 135.41C50.3526 141.39 44.0659 147.753 37.9326 154.5C27.8126 166 21.3726 175.123 18.6126 181.87C15.8526 188.463 15.7759 192.373 18.3826 193.6C21.1426 194.98 26.0493 193.523 33.1026 189.23C40.3093 185.09 48.7426 177.883 58.4026 167.61C63.6159 162.243 68.5226 156.57 73.1226 150.59C77.7226 144.457 82.0159 138.4 86.0026 132.42C89.9893 126.44 93.5926 120.69 96.8126 115.17C100.186 109.65 103.023 104.667 105.323 100.22ZM163.053 173.82C167.193 171.52 171.793 167.227 176.853 160.94C181.299 155.573 186.513 147.907 192.493 137.94C198.626 127.82 205.526 114.327 213.193 97.4599C213.806 96.6933 214.649 96.3099 215.723 96.3099C216.796 96.3099 217.793 96.5399 218.713 96.9999C219.786 97.4599 220.553 98.2266 221.013 99.2999C221.626 100.22 221.626 101.293 221.013 102.52C216.259 114.633 211.353 125.827 206.293 136.1C201.233 146.373 196.173 155.42 191.113 163.24C186.206 171.06 181.529 177.577 177.083 182.79C172.636 187.85 168.573 191.3 164.893 193.14C162.746 194.213 160.293 194.597 157.533 194.29C154.773 193.983 152.089 193.293 149.483 192.22C146.876 191.147 144.499 189.843 142.353 188.31C140.359 186.777 139.056 185.167 138.443 183.48C137.063 179.493 136.833 174.05 137.753 167.15C138.673 160.25 140.359 152.507 142.813 143.92C145.419 135.18 148.563 125.903 152.243 116.09C156.076 106.123 160.139 96.0799 164.433 85.9599C162.286 85.8066 159.833 85.8066 157.073 85.9599C154.466 86.1133 151.783 86.4199 149.023 86.8799C146.416 87.1866 143.886 87.6466 141.433 88.2599C138.979 88.8733 136.986 89.4866 135.453 90.0999C132.999 96.5399 129.856 103.67 126.023 111.49C122.343 119.31 118.049 127.283 113.143 135.41C108.389 143.537 103.023 151.587 97.0426 159.56C91.2159 167.38 85.0059 174.587 78.4126 181.18C71.0526 188.387 63.6159 194.137 56.1026 198.43C48.5893 202.723 41.4593 205.637 34.7126 207.17C28.1193 208.857 22.1393 209.163 16.7726 208.09C11.5593 207.17 7.57259 204.947 4.81259 201.42C1.74593 197.893 0.28926 193.14 0.442593 187.16C0.595926 181.027 2.97259 173.82 7.57259 165.54C13.2459 155.42 22.3693 144.073 34.9426 131.5C45.5226 121.073 57.3293 111.49 70.3626 102.75C83.3959 94.0099 97.8093 86.88 113.603 81.3599C114.216 79.9799 115.059 77.5266 116.133 73.9999C117.359 70.3199 118.433 66.2566 119.353 61.8099C120.426 57.3633 121.269 52.6866 121.883 47.7799C122.649 42.8733 122.803 38.3499 122.343 34.2099C122.036 29.9166 121.039 26.3133 119.353 23.3999C117.666 20.3333 115.059 18.4933 111.533 17.8799C107.086 17.1133 101.873 17.8799 95.8926 20.1799C89.9126 22.3266 83.7026 25.5466 77.2626 29.8399C70.9759 33.9799 64.6893 38.9633 58.4026 44.7899C52.2693 50.4633 46.9026 56.4433 42.3026 62.7299C37.7026 69.0166 34.0993 75.3799 31.4926 81.8199C28.8859 88.1066 28.0426 94.0099 28.9626 99.5299C29.7293 103.823 32.1826 107.12 36.3226 109.42C40.4626 111.567 45.1393 111.72 50.3526 109.88C48.2059 111.72 45.5993 113.177 42.5326 114.25C39.4659 115.17 36.1693 115.707 32.6426 115.86C29.2693 115.86 25.8959 115.477 22.5226 114.71C19.1493 113.79 16.1593 112.333 13.5526 110.34C10.9459 108.193 8.87593 105.51 7.34259 102.29C5.96259 98.9166 5.50259 94.9299 5.96259 90.3299C6.57593 84.3499 8.56926 77.8333 11.9426 70.7799C15.4693 63.5733 19.9926 56.5199 25.5126 49.6199C31.0326 42.5666 37.3193 36.0499 44.3726 30.0699C51.5793 24.0899 59.1693 19.1833 67.1426 15.3499C75.1159 11.3633 83.2426 8.83327 91.5226 7.75993C99.9559 6.6866 108.159 7.68327 116.133 10.7499C125.486 14.2766 132.386 18.3399 136.833 22.9399C141.433 27.3866 144.269 32.3699 145.343 37.8899C146.569 43.2566 146.569 49.0833 145.343 55.3699C144.269 61.6566 142.813 68.3266 140.973 75.3799C147.413 74.7666 152.779 74.5366 157.073 74.6899C161.519 74.8433 165.429 75.3033 168.803 76.0699C172.023 69.4766 175.089 63.1899 178.003 57.2099C181.069 51.0766 183.906 45.5566 186.513 40.6499C189.119 35.5899 191.496 31.2199 193.643 27.5399C195.789 23.8599 197.629 21.0999 199.163 19.2599C200.696 17.4199 202.766 16.8833 205.373 17.6499C208.133 18.4166 210.663 19.7966 212.963 21.7899C215.416 23.6299 217.256 25.7766 218.483 28.2299C219.863 30.5299 219.863 32.3699 218.483 33.7499C215.876 36.3566 212.349 41.3399 207.903 48.6999C203.456 56.0599 198.779 64.5699 193.873 74.2299C188.966 83.7366 184.136 93.8566 179.383 104.59C174.783 115.323 170.873 125.443 167.653 134.95C164.433 144.457 162.286 152.737 161.213 159.79C160.139 166.843 160.753 171.52 163.053 173.82Z" fill="#FF543C" fill-opacity="0.05"/>
</svg>
