<svg width="80" height="80" viewBox="0 0 80 80" fill="none" xmlns="http://www.w3.org/2000/svg">
<g clip-path="url(#clip0_1264_1995)">
<path d="M40.1325 47.8152C36.731 47.8152 33.9609 45.0451 33.9609 41.6436C33.9609 38.2421 36.731 35.472 40.1325 35.472C43.534 35.472 46.3041 38.2421 46.3041 41.6436C46.3041 45.0451 43.534 47.8152 40.1325 47.8152ZM40.1325 38.5884C38.4419 38.5884 37.0773 39.953 37.0773 41.6436C37.0773 43.3342 38.4419 44.6988 40.1325 44.6988C41.8231 44.6988 43.1877 43.3342 43.1877 41.6436C43.1877 39.953 41.8231 38.5884 40.1325 38.5884Z" fill="#FF543C"/>
<path d="M30.661 64.5781C28.4408 64.5781 26.4448 63.6616 24.8153 62.521C22.3915 60.8304 20.9861 58.8547 20.6398 56.5938C20.2325 54.0682 21.1898 51.2981 23.4303 48.3243C23.8173 47.8151 24.2043 47.3466 24.6116 46.8782C23.7969 46.7152 22.9822 46.5116 22.1674 46.2468C18.4604 45.0858 15.9755 43.3341 14.7942 41.0121C13.7757 39.0161 13.735 36.6737 14.6312 34.0055C16.0163 29.9522 19.4585 25.6953 28.1353 28.3839C28.8075 28.5875 29.4593 28.832 30.0907 29.0764C29.9888 28.2617 29.9481 27.4469 29.9481 26.6118C29.9685 17.8535 35.2642 16 39.7045 16C44.1447 16 49.4405 17.8535 49.4405 26.6526C49.4405 27.3043 49.4201 27.9358 49.359 28.5672C50.1533 28.2209 50.9884 27.9154 51.8439 27.6506C60.5208 24.9416 63.9833 29.219 65.348 33.2722C66.2442 35.9405 66.2035 38.3032 65.1851 40.2789C64.0037 42.6009 61.5188 44.3525 57.8118 45.5135C57.1804 45.7172 56.549 45.8801 55.9175 46.0227C56.4675 46.6134 56.9971 47.2244 57.4859 47.8762C59.7468 50.85 60.6837 53.62 60.2763 56.1457C59.9301 58.3862 58.5247 60.3823 56.1009 62.0525C52.5161 64.5374 47.1389 66.0243 41.7616 58.9565C41.3339 58.4066 40.9469 57.8363 40.6007 57.266C40.1729 57.9992 39.6841 58.7121 39.1545 59.425C36.2419 63.2746 33.3088 64.5781 30.661 64.5781ZM23.2062 30.6855C19.6418 30.6855 18.3179 32.9056 17.605 35.0443C16.9736 36.9181 16.9736 38.405 17.605 39.6271C18.3993 41.1751 20.2528 42.3972 23.1248 43.2934C24.8153 43.823 26.5262 44.1285 28.1761 44.1896C28.8278 44.2099 29.3778 44.6377 29.5815 45.2691C29.7851 45.9005 29.5815 46.5523 29.0723 46.9597C27.9316 47.8966 26.8725 48.9761 25.9356 50.2186C24.2043 52.4794 23.471 54.4755 23.7358 56.105C23.9598 57.49 24.8968 58.7528 26.6077 59.9546C29.113 61.7062 32.5349 63.0098 36.69 57.5307C37.7287 56.1661 38.5435 54.7199 39.1341 53.2534C39.3582 52.6627 39.9285 52.2757 40.5599 52.2554H40.5803C41.2117 52.2554 41.7616 52.622 42.0061 53.1923C42.5764 54.5163 43.33 55.8198 44.2669 57.0419C48.422 62.521 51.8235 61.2174 54.3492 59.4657C56.0601 58.264 57.0174 57.0215 57.2211 55.6161C57.4859 53.9663 56.7323 51.9906 55.0213 49.7297C53.9826 48.3651 52.8012 47.1633 51.4976 46.1857C50.9884 45.7987 50.7644 45.1265 50.9477 44.4951C51.131 43.8637 51.681 43.436 52.3327 43.3952C53.84 43.2934 55.3676 42.9879 56.8952 42.5194C59.7671 41.6232 61.6206 40.4011 62.415 38.8531C63.0464 37.631 63.0464 36.1238 62.415 34.2499C61.4577 31.4595 59.5023 28.5061 52.7808 30.604C51.0903 31.1336 49.5423 31.8465 48.1573 32.7223C47.6073 33.0685 46.9148 33.0482 46.4056 32.6612C45.8964 32.2946 45.652 31.6428 45.8149 31.0114C46.1815 29.6263 46.3445 28.1394 46.3445 26.6322C46.3445 19.9514 42.8004 19.096 39.7248 19.096C36.6492 19.096 33.1052 19.9514 33.1052 26.6322C33.1052 28.3228 33.3292 29.9318 33.7569 31.4595C33.9403 32.0705 33.7162 32.7223 33.207 33.1297C32.6978 33.5166 32.0053 33.5574 31.4553 33.2315C30.1721 32.4575 28.7464 31.8465 27.2391 31.378C25.6504 30.8891 24.3265 30.6651 23.2062 30.6651V30.6855Z" fill="#011D3D"/>
</g>
<defs>
<clipPath id="clip0_1264_1995">
<rect width="52" height="48.5781" fill="white" transform="translate(14 16)"/>
</clipPath>
</defs>
</svg>
