<svg width="80" height="80" viewBox="0 0 80 80" fill="none" xmlns="http://www.w3.org/2000/svg">
<g clip-path="url(#clip0_1264_1988)">
<path d="M58.8087 65H21.1917C19.0674 65 17.3193 63.2519 17.3193 61.1277V39C17.3193 38.0928 18.0717 37.3405 18.9789 37.3405H61.0215C61.9287 37.3405 62.681 38.0928 62.681 39V61.1277C62.681 63.2519 60.933 65 58.8087 65ZM20.6385 40.6596V61.1277C20.6385 61.4375 20.8819 61.6809 21.1917 61.6809H58.8087C59.1185 61.6809 59.3619 61.4375 59.3619 61.1277V40.6596H20.6385Z" fill="#011D3D"/>
<path d="M62.1277 40.6596H17.8723C15.7481 40.6596 14 38.9115 14 36.7872V30.149C14 28.0247 15.7481 26.2766 17.8723 26.2766H62.1277C64.2519 26.2766 66 28.0247 66 30.149V36.7872C66 38.9115 64.2519 40.6596 62.1277 40.6596ZM17.8723 29.5958C17.5626 29.5958 17.3191 29.8392 17.3191 30.149V36.7872C17.3191 37.097 17.5626 37.3404 17.8723 37.3404H62.1277C62.4374 37.3404 62.6809 37.097 62.6809 36.7872V30.149C62.6809 29.8392 62.4374 29.5958 62.1277 29.5958H17.8723Z" fill="#011D3D"/>
<path d="M40.0001 29.5957H33.3618C28.7814 29.5957 25.064 25.8783 25.064 21.2979C25.064 16.7174 28.7814 13 33.3618 13C37.9423 13 41.6597 16.7174 41.6597 21.2979V27.9362C41.6597 28.8434 40.9074 29.5957 40.0001 29.5957ZM33.3618 16.3191C30.618 16.3191 28.3831 18.554 28.3831 21.2979C28.3831 24.0417 30.618 26.2766 33.3618 26.2766H38.3406V21.2979C38.3406 18.554 36.1057 16.3191 33.3618 16.3191Z" fill="#FF543C"/>
<path d="M46.6382 29.5957H39.9999C39.0927 29.5957 38.3403 28.8434 38.3403 27.9362V21.2979C38.3403 16.7174 42.0578 13 46.6382 13C51.2186 13 54.9361 16.7174 54.9361 21.2979C54.9361 25.8783 51.2186 29.5957 46.6382 29.5957ZM41.6595 26.2766H46.6382C49.382 26.2766 51.6169 24.0417 51.6169 21.2979C51.6169 18.554 49.382 16.3191 46.6382 16.3191C43.8944 16.3191 41.6595 18.554 41.6595 21.2979V26.2766Z" fill="#FF543C"/>
<path d="M39.9999 65C39.0927 65 38.3403 64.2477 38.3403 63.3404V27.9362C38.3403 27.029 39.0927 26.2766 39.9999 26.2766C40.9071 26.2766 41.6595 27.029 41.6595 27.9362V63.3404C41.6595 64.2477 40.9071 65 39.9999 65Z" fill="#FF543C"/>
</g>
<defs>
<clipPath id="clip0_1264_1988">
<rect width="52" height="52" fill="white" transform="translate(14 13)"/>
</clipPath>
</defs>
</svg>
