<svg width="114" height="104" viewBox="0 0 114 104" fill="none" xmlns="http://www.w3.org/2000/svg">
<path d="M91.7395 41.7188C96.871 41.7188 101.031 45.3323 101.031 49.7894V93.2356C101.031 97.6927 96.871 101.306 91.7395 101.306H22.2602C17.1286 101.306 12.9683 97.6927 12.9683 93.2356V49.7894C12.9683 45.3323 17.1286 41.7188 22.2602 41.7188H91.7395Z" fill="#E8E9EC"/>
<path d="M14.6393 35.71H99.3606C101.928 35.71 104 37.4388 104 39.5609V50.1165C104 52.2478 101.917 53.9674 99.3606 53.9674H14.6393C12.0717 53.9674 10 52.2386 10 50.1165V39.5609C10 37.4296 12.0827 35.71 14.6393 35.71Z" fill="#223757"/>
<path d="M62.9315 32H51.0684C50.7922 32 50.5684 32.2239 50.5684 32.5V101.5C50.5684 101.776 50.7922 102 51.0684 102H62.9315C63.2077 102 63.4315 101.776 63.4315 101.5V32.5C63.4315 32.2239 63.2077 32 62.9315 32Z" fill="#FF6550"/>
<path d="M94.3314 23.138L88.7306 8.11611C86.7522 2.7981 82.1964 1.39091 78.6297 5.00935L57.6061 22.8812C57.3831 23.1005 57.1881 23.3197 56.993 23.539C56.8119 23.3197 56.6029 23.1005 56.38 22.8812L35.3563 5.00935C31.7757 1.39091 27.2338 2.7981 25.2554 8.11611L19.6547 23.138C17.6763 28.456 19.7522 32.8056 24.2663 32.8056L57.6061 40L89.7338 32.8056C94.2478 32.8056 96.3237 28.456 94.3453 23.138H94.3314Z" fill="#FF6550"/>
<g clip-path="url(#clip0_1264_2038)">
<path d="M71.5554 24.5091C72.4199 23.7236 73.5031 23.0659 74.4197 22.3197C76.0237 21.0041 77.5548 19.6199 79.2317 18.3926C79.992 17.8429 81.0335 17.6269 81.8876 19.4137C82.1897 20.0322 82.5021 20.6507 82.7938 21.279C83.2208 22.1823 83.6687 22.9382 82.3251 23.2131C80.242 23.6451 78.138 23.9985 76.0445 24.3323C74.9925 24.4992 73.9406 24.6661 72.8886 24.833C72.6699 24.8723 71.295 25.1963 71.3575 24.8036C71.3679 24.7054 71.4513 24.6072 71.5658 24.4992L71.5554 24.5091Z" fill="white"/>
</g>
<g clip-path="url(#clip1_1264_2038)">
<path d="M41.472 24.5091C40.6795 23.7236 39.6866 23.0659 38.8464 22.3197C37.3761 21.0041 35.9726 19.6199 34.4354 18.3926C33.7385 17.8429 32.7837 17.6269 32.0008 19.4137C31.7239 20.0322 31.4375 20.6507 31.1702 21.279C30.7787 22.1823 30.3682 22.9382 31.5998 23.2131C33.5093 23.6451 35.4379 23.9985 37.357 24.3323C38.3213 24.4992 39.2856 24.6661 40.2499 24.833C40.4504 24.8723 41.7107 25.1963 41.6534 24.8036C41.6438 24.7054 41.5675 24.6072 41.4624 24.4992L41.472 24.5091Z" fill="white"/>
</g>
<defs>
<clipPath id="clip0_1264_2038">
<rect width="11.8737" height="7" fill="white" transform="translate(71.3472 18)"/>
</clipPath>
<clipPath id="clip1_1264_2038">
<rect width="10.8842" height="7" fill="white" transform="matrix(-1 0 0 1 41.6631 18)"/>
</clipPath>
</defs>
</svg>
