<svg width="36" height="36" viewBox="0 0 36 36" fill="none" xmlns="http://www.w3.org/2000/svg">
<circle cx="18" cy="18" r="18" fill="#A663CF"/>
<path d="M21.9431 27H14.0257C11.2539 27 9 24.7425 9 21.9662V14.0338C9 11.2575 11.2539 9 14.0257 9H21.9431C24.7149 9 26.9688 11.2575 26.9688 14.0338V21.9662C26.9688 24.7425 24.7149 27 21.9431 27ZM14.0257 10.4494C12.0518 10.4494 10.447 12.0568 10.447 14.0338V21.9662C10.447 23.9432 12.0518 25.5507 14.0257 25.5507H21.9431C23.9169 25.5507 25.5218 23.9432 25.5218 21.9662V14.0338C25.5218 12.0568 23.9169 10.4494 21.9431 10.4494H14.0257Z" fill="white"/>
<path d="M17.9843 22.7255C15.3814 22.7255 13.2654 20.606 13.2654 17.999C13.2654 15.3919 15.3814 13.2725 17.9843 13.2725C20.5871 13.2725 22.7032 15.3919 22.7032 17.999C22.7032 20.606 20.5871 22.7255 17.9843 22.7255ZM17.9843 14.724C16.1816 14.724 14.7146 16.1934 14.7146 18.0012C14.7146 19.809 16.1816 21.2762 17.9843 21.2762C19.787 21.2762 21.254 19.8068 21.254 18.0012C21.254 16.1957 19.787 14.724 17.9843 14.724Z" fill="white"/>
<path d="M23.979 13.1563C23.979 13.7975 23.4589 14.3184 22.8187 14.3184C22.1786 14.3184 21.6584 13.7975 21.6584 13.1563C21.6584 12.5151 22.1786 11.9941 22.8187 11.9941C23.4589 11.9941 23.979 12.5151 23.979 13.1563Z" fill="white"/>
</svg>
