<svg width="36" height="36" viewBox="0 0 36 36" fill="none" xmlns="http://www.w3.org/2000/svg">
<circle cx="18" cy="18" r="18" fill="#FAE100"/>
<g clip-path="url(#clip0_1335_2504)">
<path d="M18.0009 11C13.029 11 9 14.0811 9 17.8839C9 20.3579 10.7072 22.5284 13.2697 23.7407C13.0819 24.4201 12.5876 26.2041 12.4891 26.5853C12.3669 27.0582 12.6678 27.0529 12.8667 26.9259C13.0217 26.8253 15.3326 25.3042 16.3302 24.6495C16.8719 24.7271 17.43 24.7677 18.0009 24.7677C22.971 24.7677 27.0018 21.6867 27.0018 17.8839C27.0018 14.0811 22.971 11 18.0009 11ZM13.6108 19.6591C13.6108 20.0773 12.6496 20.072 12.6478 19.6538C12.6533 19.0803 12.6478 16.6186 12.6478 16.6186H11.7212C11.1777 16.6186 11.1759 15.7592 11.7212 15.7592C11.7212 15.7592 13.8899 15.7769 14.5392 15.7769C15.1155 15.7769 15.1137 16.6539 14.5392 16.6539C13.9282 16.6539 13.6181 16.6521 13.6181 16.6521L13.6144 19.6609L13.6108 19.6591ZM17.1528 19.7632C16.9285 19.1879 16.9868 19.1632 16.9868 19.1632H15.2924L15.1064 19.7897C14.9094 20.2291 14.0558 19.8709 14.2546 19.4315C14.5282 18.8227 15.3508 16.5286 15.5788 16.0433C15.67 15.851 15.8815 15.7751 16.0986 15.7751C16.3612 15.7751 16.633 15.8881 16.7078 16.0433C16.8719 16.3822 17.7729 18.775 18.0319 19.4403C18.2143 19.9061 17.3352 20.2273 17.1528 19.7632ZM20.589 19.975C20.1531 19.975 19.1719 19.9803 18.7286 19.9803C18.2854 19.9803 18.3602 19.4809 18.3602 19.4809C18.3602 19.4809 18.3566 16.968 18.3547 16.188C18.3547 15.9145 18.6046 15.7769 18.8563 15.7769C19.108 15.7769 19.3561 15.9128 19.3579 16.1863C19.3579 16.751 19.3561 19.075 19.3561 19.075C19.3561 19.075 20.1513 19.0803 20.5854 19.0803C21.0195 19.0803 21.0231 19.9767 20.5872 19.9767L20.589 19.975ZM23.582 19.9044L22.36 18.2915L22.081 18.5085C22.081 18.5085 22.081 19.3044 22.081 19.7244C22.081 20.0861 21.1307 20.0861 21.1307 19.7244C21.1307 19.495 21.1508 16.4033 21.1417 16.0628C21.1362 15.8739 21.3861 15.7769 21.6305 15.7769C21.8584 15.7769 22.0828 15.8616 22.0864 16.0381C22.0992 16.5022 22.0864 17.3404 22.0864 17.3404C22.0864 17.3404 23.4653 16.0045 23.6623 15.8157C23.8647 15.6198 24.4921 16.2322 24.2897 16.4263C23.9432 16.7598 23.0622 17.6809 23.0622 17.6809L24.359 19.3344C24.6052 19.6503 23.8282 20.2185 23.582 19.9044Z" fill="#371D1E"/>
<path d="M15.597 18.3389H16.6713L16.1552 16.7754L15.597 18.3389Z" fill="#371D1E"/>
</g>
<defs>
<clipPath id="clip0_1335_2504">
<rect width="18" height="16" fill="white" transform="translate(9 11)"/>
</clipPath>
</defs>
</svg>
