<svg width="37" height="36" viewBox="0 0 37 36" fill="none" xmlns="http://www.w3.org/2000/svg">
<circle cx="18.5" cy="18" r="18" fill="#0F948C"/>
<path d="M14.8837 21.6092L21.9675 14.5254" stroke="white" stroke-width="2" stroke-linecap="round" stroke-linejoin="round"/>
<path d="M14.394 18.4192L11.8348 20.9784C11.098 21.7152 11.098 22.9098 11.8348 23.6466L12.855 24.6668C13.5918 25.4036 14.7864 25.4036 15.5232 24.6668L18.0824 22.1076C18.8192 21.3708 18.8192 20.1762 18.0824 19.4394L17.0622 18.4192C16.3254 17.6824 15.1308 17.6824 14.394 18.4192Z" stroke="white" stroke-width="2" stroke-linecap="round" stroke-linejoin="round"/>
<path d="M22.611 17.5818L25.1702 15.0226C25.907 14.2858 25.907 13.0912 25.1702 12.3544L24.15 11.3342C23.4132 10.5974 22.2186 10.5974 21.4818 11.3342L18.9226 13.8934C18.1858 14.6302 18.1858 15.8248 18.9226 16.5616L19.9428 17.5818C20.6796 18.3186 21.8742 18.3186 22.611 17.5818Z" stroke="white" stroke-width="2" stroke-linecap="round" stroke-linejoin="round"/>
</svg>
