<svg width="80" height="80" viewBox="0 0 80 80" fill="none" xmlns="http://www.w3.org/2000/svg">
<g clip-path="url(#clip0_1264_2004)">
<path d="M33.37 62.16H20.0883C16.73 62.16 14 59.43 14 56.0717V25.0883C14 21.73 16.73 19 20.0883 19H59.9117C63.27 19 66 21.73 66 25.0883V42.79C66 43.7 65.2633 44.4583 64.3317 44.4583C63.4 44.4583 62.6633 43.7217 62.6633 42.79V25.0883C62.6633 23.5717 61.4283 22.315 59.89 22.315H20.0883C18.5717 22.315 17.315 23.55 17.315 25.0883V56.0717C17.315 57.5883 18.55 58.845 20.0883 58.845H33.37C34.28 58.845 35.0383 59.5817 35.0383 60.5133C35.0383 61.445 34.3017 62.1817 33.37 62.1817V62.16Z" fill="#011D3D"/>
<path d="M39.9998 40.9484C38.6348 40.9484 37.2698 40.4934 36.1648 39.605L16.6431 23.81C15.9281 23.225 15.8198 22.185 16.4048 21.47C16.9898 20.755 18.0298 20.6467 18.7448 21.2317L38.2665 37.0267C39.2848 37.85 40.7365 37.85 41.7548 37.0267L61.2548 21.2317C61.9698 20.6467 63.0098 20.755 63.5948 21.47C64.1798 22.185 64.0715 23.225 63.3565 23.81L43.8348 39.605C42.7298 40.515 41.3648 40.9484 39.9998 40.9484Z" fill="#011D3D"/>
<path d="M51.0936 71C50.6819 71 50.2702 70.8483 49.9452 70.545C49.9452 70.545 41.7552 62.745 38.5702 59.625C37.0102 58.0866 36.1436 56.05 36.1436 53.84C36.1436 51.6083 36.9886 49.5283 38.5702 47.9683C40.1302 46.4083 42.1452 45.4766 44.4202 45.5633C46.6086 45.5633 48.6452 46.43 50.1619 47.99C50.4436 48.2933 50.7686 48.6183 51.0719 48.9433C51.3752 48.6183 51.7002 48.2933 51.9819 47.99C53.4986 46.4516 55.5569 45.585 57.7236 45.5633C59.9552 45.5633 62.0136 46.4083 63.5736 47.9683C65.1336 49.5283 66.0002 51.63 66.0002 53.84C66.0002 56.0283 65.1336 58.0866 63.5736 59.625C60.3886 62.745 52.2419 70.545 52.2419 70.545C51.9169 70.8483 51.5052 71 51.0936 71ZM44.3769 48.8783C43.0769 48.8783 41.8419 49.3983 40.9102 50.3083C39.9786 51.24 39.4586 52.4966 39.4586 53.8183C39.4586 55.1183 39.9786 56.3316 40.8886 57.2416C43.3369 59.6466 48.7319 64.7816 51.0936 67.035C53.4552 64.7816 58.8069 59.625 61.2552 57.2416C62.1869 56.3316 62.6852 55.1183 62.6852 53.8183C62.6852 52.4966 62.1869 51.24 61.2336 50.3083C60.3019 49.3766 59.1102 48.9 57.7452 48.8783C56.4452 48.8783 55.2536 49.3983 54.3436 50.3083C53.4552 51.1966 52.2852 52.475 52.2852 52.4966C51.9819 52.8433 51.5269 53.0383 51.0719 53.0383C50.6169 53.0383 50.1619 52.8433 49.8586 52.4966C49.8586 52.4966 48.6886 51.2183 47.8002 50.33C46.8902 49.42 45.6986 48.9 44.3986 48.9H44.3769V48.8783Z" fill="#FF543C"/>
</g>
<defs>
<clipPath id="clip0_1264_2004">
<rect width="52" height="52" fill="white" transform="translate(14 19)"/>
</clipPath>
</defs>
</svg>
