<svg width="80" height="80" viewBox="0 0 80 80" fill="none" xmlns="http://www.w3.org/2000/svg">
<g clip-path="url(#clip0_1264_1983)">
<path d="M51.0719 71C51.0719 71 51.0286 71 51.0069 71C50.3569 70.9784 49.7719 70.5667 49.5336 69.96L40.6936 47.8384C40.4552 47.2317 40.5852 46.5167 41.0619 46.04C41.5386 45.5634 42.2319 45.4334 42.8602 45.6717L64.9819 54.5117C65.5886 54.75 66.0002 55.335 66.0219 55.985C66.0436 56.635 65.6969 57.2417 65.1119 57.545L56.7486 61.7267L52.5669 70.09C52.2852 70.6534 51.7002 71 51.0719 71ZM45.2002 50.2L51.2452 65.3017L54.0186 59.755C54.1702 59.43 54.4302 59.17 54.7552 59.0184L60.3019 56.245L45.2002 50.2Z" fill="#FF543C"/>
<path d="M40 62.16H20.0883C16.73 62.16 14 59.43 14 56.0717V25.0883C14 21.73 16.73 19 20.0883 19H59.9117C63.27 19 66 21.73 66 25.0883V47.21C66 48.12 65.2633 48.8783 64.3317 48.8783C63.4 48.8783 62.6633 48.1417 62.6633 47.21V25.0883C62.6633 23.5717 61.4283 22.315 59.89 22.315H20.0883C18.5717 22.315 17.315 23.55 17.315 25.0883V56.0717C17.315 57.5883 18.55 58.845 20.0883 58.845H40C40.91 58.845 41.6683 59.5817 41.6683 60.5133C41.6683 61.445 40.9317 62.1817 40 62.1817V62.16Z" fill="#011D3D"/>
<path d="M40.0002 41.36C37.4652 41.36 34.9518 40.45 32.9368 38.6084L16.5785 23.745C15.9068 23.1384 15.8418 22.0767 16.4702 21.405C17.0985 20.7334 18.1385 20.6684 18.8102 21.2967L35.1685 36.16C37.9202 38.6734 42.0802 38.6734 44.8535 36.16L61.1902 21.2967C61.8618 20.69 62.9235 20.7334 63.5302 21.405C64.1368 22.0767 64.0935 23.1384 63.4218 23.745L47.0852 38.6084C45.0702 40.45 42.5352 41.36 40.0218 41.36H40.0002Z" fill="#011D3D"/>
</g>
<defs>
<clipPath id="clip0_1264_1983">
<rect width="52" height="52" fill="white" transform="translate(14 19)"/>
</clipPath>
</defs>
</svg>
