<svg width="114" height="104" viewBox="0 0 114 104" fill="none" xmlns="http://www.w3.org/2000/svg">
<path d="M39.1713 66.0156L74.8188 52.9805L102 63.7845V100.749L74.8188 89.9453L39.1713 102.98L12 92.1664V55.2116L39.1713 66.0156Z" fill="white"/>
<path d="M39.1719 102.98L74.8193 89.9453V52.9805L39.1719 66.0156V102.98Z" fill="#223757"/>
<path d="M74.8193 89.9453L102.001 100.749V63.7845L74.8193 52.9805V89.9453Z" fill="#E8E9EC"/>
<path d="M12 92.1661L39.1713 102.98V66.0153L12 55.2113V92.1661Z" fill="#E8E9EC"/>
<path d="M76.5836 12.7348C73.3277 5.56075 65.1369 1.14905 57.1395 1C57.0784 1 57.0377 1 56.997 1C56.9563 1 56.9156 1 56.8546 1C48.8571 1.14905 40.6664 5.57069 37.4104 12.7348C30.9697 26.9439 38.8247 40.5469 44.7566 53.7921C46.639 57.9853 48.6841 62.1288 50.8412 66.2027C51.3499 67.1566 55.8167 74.8672 56.997 76C58.1773 74.8573 62.644 67.1467 63.1527 66.2027C65.3098 62.1288 67.3551 57.9953 69.2374 53.7921C75.1795 40.5469 83.0345 26.9439 76.5836 12.7348ZM56.997 32.2002C51.6044 32.0611 47.28 27.7488 47.28 22.4527C47.28 17.1566 51.6044 12.854 56.997 12.705C62.3897 12.854 66.7039 17.1566 66.7039 22.4527C66.7039 27.7488 62.3795 32.0611 56.997 32.2002Z" fill="#FF6550"/>
</svg>
