<svg width="80" height="80" viewBox="0 0 80 80" fill="none" xmlns="http://www.w3.org/2000/svg">
<g clip-path="url(#clip0_1264_1999)">
<path d="M53.2817 65H22.2983C17.7267 65 14 61.2734 14 56.7017V25.7184C14 21.1467 17.7267 17.42 22.2983 17.42H42.21C43.12 17.42 43.8783 18.1567 43.8783 19.0884C43.8783 20.02 43.1417 20.7567 42.21 20.7567H22.2983C19.5467 20.7567 17.315 22.9884 17.315 25.74V56.7234C17.315 59.475 19.5467 61.7067 22.2983 61.7067H53.2817C56.0333 61.7067 58.265 59.475 58.265 56.7234V36.8117C58.265 35.9017 59.0017 35.1434 59.9333 35.1434C60.865 35.1434 61.6017 35.88 61.6017 36.8117V56.7234C61.6017 61.295 57.875 65.0217 53.3033 65.0217L53.2817 65Z" fill="#011D3D"/>
<path d="M38.1585 49.5083H33.3485C31.2035 49.5083 29.4702 47.775 29.4702 45.63V40.82C29.4702 39.195 30.0985 37.6566 31.2469 36.5083L54.3219 13.4766C54.9719 12.8266 56.0119 12.8266 56.6619 13.4766L65.5019 22.3383C66.1519 22.9883 66.1519 24.0283 65.5019 24.6783L42.4485 47.7316C41.3002 48.88 39.7619 49.5083 38.1369 49.5083H38.1585ZM55.4919 17.0083L33.6302 38.87C33.1102 39.39 32.8285 40.0833 32.8285 40.82V45.63C32.8285 45.9333 33.0669 46.1933 33.3919 46.1933H38.2019C38.9385 46.1933 39.6319 45.9116 40.1519 45.3916L62.0135 23.53L55.5135 17.03L55.4919 17.0083Z" fill="#FF543C"/>
<path d="M55.4916 34.0167C55.0583 34.0167 54.6466 33.8651 54.3216 33.5401L45.4816 24.7001C44.8316 24.0501 44.8316 23.0101 45.4816 22.3601C46.1316 21.7101 47.1716 21.7101 47.8216 22.3601L56.6616 31.2001C57.3116 31.8501 57.3116 32.8901 56.6616 33.5401C56.3366 33.8651 55.9033 34.0167 55.4916 34.0167Z" fill="#FF543C"/>
</g>
<defs>
<clipPath id="clip0_1264_1999">
<rect width="52" height="52" fill="white" transform="translate(14 13)"/>
</clipPath>
</defs>
</svg>
