<svg width="114" height="104" viewBox="0 0 114 104" fill="none" xmlns="http://www.w3.org/2000/svg">
<path d="M111.99 91.4898C111.99 96.7244 107.742 101 102.563 101H11.4274C6.23839 101 2 96.7144 2 91.4898V38.7245C2 37.286 2.30699 35.2081 4.18851 33.9994L54.8709 2.80167C56.6039 1.73278 59.9213 1.73278 61.6147 2.80167L109.831 33.9494C112 35.1482 112 37.276 112 38.7145V91.4799L111.99 91.4898Z" fill="#223757"/>
<path d="M59.7267 79.7096L98.6952 56.2096C100.185 55.2896 101.099 53.6496 101.099 51.8796V40.6196C101.099 36.6196 98.6952 33.3496 94.7219 33.3496H20.1224C15.3047 33.3496 12.9009 36.6196 12.9009 40.6196V51.8996C12.9009 53.6596 13.8048 55.2996 15.3047 56.2196L54.2037 79.7096C55.7235 80.6796 58.2168 80.6796 59.7366 79.7096H59.7267Z" fill="white"/>
<path d="M100.781 80.4707C98.4375 78.8639 97.0525 81.8365 96.6402 82.4497C96.2243 81.8365 94.8394 78.8639 92.4994 80.4707C90.3779 81.9253 90.4731 87.0292 95.4878 90.3063C95.8719 90.5557 96.6226 91.0124 96.6402 90.9997C96.6578 91.0124 97.4049 90.56 97.7926 90.3063C102.807 87.0334 102.899 81.9253 100.781 80.4707Z" fill="white"/>
<path fill-rule="evenodd" clip-rule="evenodd" d="M47.7735 48.5504C48.9564 48.2324 50.1917 48.9169 50.5206 50.106L52.356 56.7406L54.4567 52.0808C54.8191 51.2767 55.6232 50.7664 56.502 50.7664C57.3808 50.7664 58.1848 51.2767 58.5473 52.0808L60.648 56.7406L62.4834 50.106C62.8123 48.9169 64.0476 48.2324 65.2305 48.5504C66.4174 48.8696 67.1345 50.0861 66.8043 51.28L65.9949 54.2057H68.1392C69.3655 54.2057 70.3794 55.1887 70.3794 56.4257C70.3794 57.6627 69.3655 58.6457 68.1392 58.6457H64.7667L63.3149 63.8937C63.063 64.8042 62.2615 65.45 61.3237 65.5203C60.3863 65.5907 59.497 65.0726 59.1091 64.2123L56.502 58.429L53.8948 64.2123C53.507 65.0726 52.6177 65.5907 51.6803 65.5203C50.7425 65.45 49.941 64.8042 49.6891 63.8937L48.2373 58.6457H44.871C43.6448 58.6457 42.6309 57.6627 42.6309 56.4257C42.6309 55.1887 43.6448 54.2057 44.871 54.2057H47.009L46.1997 51.28C45.8694 50.0861 46.5865 48.8696 47.7735 48.5504Z" fill="#FF6550"/>
</svg>
