<svg width="28" height="28" viewBox="0 0 28 28" fill="none" xmlns="http://www.w3.org/2000/svg">
<g clip-path="url(#clip0_1264_2128)">
<path d="M14 5.25C14.2321 5.25 14.4546 5.34219 14.6187 5.50628C14.7828 5.67038 14.875 5.89294 14.875 6.125V9.625C14.875 9.85706 14.7828 10.0796 14.6187 10.2437C14.4546 10.4078 14.2321 10.5 14 10.5C13.7679 10.5 13.5454 10.4078 13.3813 10.2437C13.2172 10.0796 13.125 9.85706 13.125 9.625V6.125C13.125 5.89294 13.2172 5.67038 13.3813 5.50628C13.5454 5.34219 13.7679 5.25 14 5.25ZM21 19.25C21 21.1065 20.2625 22.887 18.9497 24.1997C17.637 25.5125 15.8565 26.25 14 26.25C12.1435 26.25 10.363 25.5125 9.05025 24.1997C7.7375 22.887 7 21.1065 7 19.25V8.75C7 6.89348 7.7375 5.11301 9.05025 3.80025C10.363 2.4875 12.1435 1.75 14 1.75C15.8565 1.75 17.637 2.4875 18.9497 3.80025C20.2625 5.11301 21 6.89348 21 8.75V19.25ZM14 0C11.6794 0 9.45376 0.921872 7.81282 2.56282C6.17187 4.20376 5.25 6.42936 5.25 8.75V19.25C5.25 21.5706 6.17187 23.7962 7.81282 25.4372C9.45376 27.0781 11.6794 28 14 28C16.3206 28 18.5462 27.0781 20.1872 25.4372C21.8281 23.7962 22.75 21.5706 22.75 19.25V8.75C22.75 6.42936 21.8281 4.20376 20.1872 2.56282C18.5462 0.921872 16.3206 0 14 0Z" fill="white"/>
</g>
<defs>
<clipPath id="clip0_1264_2128">
<rect width="28" height="28" fill="white"/>
</clipPath>
</defs>
</svg>
