<svg width="114" height="104" viewBox="0 0 114 104" fill="none" xmlns="http://www.w3.org/2000/svg">
<path d="M55.1432 95.6798L55.115 67.9232H58.8746L58.9122 95.6705L75.9995 70.22L67.5404 25.099L46.1108 25.1267L37.9995 70.257L55.1432 95.6798Z" fill="#E8E9EC"/>
<path d="M54.9995 67.9232L55.0292 95.6798L57.0094 99.5233L58.9995 95.6705L58.9599 67.9232H54.9995Z" fill="#223757"/>
<path d="M51.9995 69.0046C51.9995 66.2463 54.2351 64.0004 56.991 64.0004C59.747 64.0004 61.991 66.2378 61.9995 68.9961C61.9995 71.7544 59.7725 74.0004 57.008 74.0004C54.252 74.0004 52.008 71.763 51.9995 68.9961V69.0046Z" fill="#223757"/>
<path d="M38.6299 29.8323C39.1172 32.6725 42.2571 35.0081 45.5093 35C53.1854 35 60.8802 34.9918 68.575 34.9918C71.8085 34.9918 74.9482 32.6562 75.4356 29.8079C77.1039 19.4562 77.9942 8.03656 77.9942 8.03656C78.1161 5.80672 76.1197 4 73.5611 4L40.4294 4.04888C37.8707 4.04074 35.8744 5.86365 36.0056 8.09348C36.0056 8.09348 36.9428 19.4888 38.6299 29.8323Z" fill="#FF6550"/>
<path d="M82 59C83.8623 53.301 85.9619 47.757 89.2209 42.7327C92.4711 37.7267 97.8471 31.9547 104.102 32.0003C108.248 32.0367 111.568 34.827 110.918 39.3224C110.216 44.1734 106.105 46.9545 102.037 48.532C96.8545 50.5472 85.0482 53.602 82 58.991V59Z" fill="#223757"/>
<path d="M57.5 98.5C57.5 99.3333 56.6565 100 55.6225 100H24.3775C23.3345 100 22.5 99.326 22.5 98.5C22.5 97.6666 23.3435 97 24.3775 97H55.6225C56.6655 97 57.5 97.6739 57.5 98.5Z" fill="#223757"/>
</svg>
