<svg width="80" height="80" viewBox="0 0 80 80" fill="none" xmlns="http://www.w3.org/2000/svg">
<g clip-path="url(#clip0_1264_1978)">
<path d="M23.233 25.4105C20.086 25.4105 17.5171 22.8415 17.5171 19.7159C17.5171 16.5904 20.086 14 23.233 14C26.38 14 28.949 16.569 28.949 19.7159C28.949 22.8629 26.38 25.4105 23.233 25.4105ZM23.233 17.2754C21.8843 17.2754 20.8139 18.3672 20.8139 19.7159C20.8139 21.0646 21.9057 22.135 23.233 22.135C24.5603 22.135 25.6521 21.0432 25.6521 19.7159C25.6521 18.3886 24.5603 17.2754 23.233 17.2754Z" fill="#FF543C"/>
<path d="M55.0665 25.4105C51.9195 25.4105 49.3506 22.8415 49.3506 19.7159C49.3506 16.5904 51.9195 14 55.0665 14C58.2135 14 60.7825 16.569 60.7825 19.7159C60.7825 22.8629 58.2135 25.4105 55.0665 25.4105ZM55.0665 17.2754C53.7178 17.2754 52.6474 18.3672 52.6474 19.7159C52.6474 21.0646 53.7392 22.135 55.0665 22.135C56.3938 22.135 57.507 21.0432 57.507 19.7159C57.507 18.3886 56.4152 17.2754 55.0665 17.2754Z" fill="#FF543C"/>
<path d="M66.3059 66H43.8275C43.3137 66 42.8213 65.7645 42.5216 65.3364C42.2219 64.9296 42.1149 64.373 42.2647 63.8806L47.8308 45.4912C48.0877 44.6348 49.0082 44.1425 49.8646 44.3994C50.7209 44.6562 51.2133 45.5768 50.9564 46.4331L46.0325 62.7032H64.1009L59.177 46.4331C58.9201 45.6196 59.3483 44.7419 60.1618 44.4208L61.9387 43.7571L61.0395 32.6036C60.8683 32.3467 59.7122 30.8481 55.0667 30.8481C49.8646 30.8481 49.051 32.7106 49.0296 32.732C48.9868 32.9033 48.944 32.9675 48.8584 33.1173L40.7876 45.7481C40.4879 46.219 39.9741 46.4973 39.4175 46.4973H38.8823C38.2828 46.4973 37.7476 46.1762 37.4479 45.6624L30.3833 33.0317C30.3833 33.0317 28.7349 30.8481 23.2116 30.8481C18.8658 30.8481 16.9177 32.2182 16.254 32.839V43.9926L18.459 45.5126C18.8444 45.7909 19.1013 46.219 19.1655 46.69L20.921 62.7032H25.5237L27.2791 46.69C27.3862 45.7909 28.1997 45.1486 29.0774 45.2343C29.9765 45.3413 30.6188 46.1334 30.5331 47.0325L28.6278 64.5015C28.5422 65.3364 27.8357 65.9572 27.0008 65.9572H19.4652C18.6303 65.9572 17.9238 65.3364 17.8382 64.5015L16.0185 47.7818L13.7065 46.1976C13.2569 45.8979 13 45.3841 13 44.8489V32.2182C13 31.8971 13.0856 31.5974 13.2569 31.3405C13.5138 30.9551 15.8687 27.5513 23.233 27.5513C30.5974 27.5513 32.9736 30.9551 33.2091 31.3405L39.2248 42.0873L46.0111 31.4689C46.4393 30.4199 48.2375 27.5513 55.0667 27.5513C62.9234 27.5513 64.1223 31.3833 64.2507 31.8115C64.2721 31.8971 64.2935 31.9827 64.2935 32.0898L65.2997 44.7205C65.3639 45.4483 64.9358 46.1334 64.2507 46.3903L62.7522 46.9469L67.8687 63.8592C68.0185 64.3516 67.9329 64.8868 67.6118 65.315C67.3121 65.7217 66.8197 65.9786 66.3059 65.9786V66Z" fill="#011D3D"/>
</g>
<defs>
<clipPath id="clip0_1264_1978">
<rect width="54.9329" height="52" fill="white" transform="translate(13 14)"/>
</clipPath>
</defs>
</svg>
