<svg width="20" height="20" viewBox="0 0 20 20" fill="none" xmlns="http://www.w3.org/2000/svg">
<g clip-path="url(#clip0_1925_4380)">
<path d="M16.645 14.0002L16.7283 14.0835C16.9175 14.2743 17.1519 14.4142 17.4096 14.4901C17.6674 14.566 17.9401 14.5755 18.2025 14.5177C18.4607 14.4635 18.7011 14.3453 18.9016 14.1739C19.1021 14.0025 19.2563 13.7834 19.35 13.5369C19.8101 12.3288 20.03 11.0425 19.9975 9.75021C19.9037 7.21188 18.8597 4.80144 17.0723 2.99665C15.285 1.19186 12.8848 0.124467 10.3475 0.00603998C9.00582 -0.0406115 7.66849 0.183365 6.41523 0.664617C5.16196 1.14587 4.01843 1.87454 3.0528 2.80719C2.08718 3.73985 1.31923 4.85738 0.794745 6.09318C0.270259 7.32897 -2.76938e-05 8.65772 2.12826e-09 10.0002C0.00308769 12.6514 1.05765 15.1932 2.93234 17.0679C4.80704 18.9426 7.34878 19.9971 10 20.0002C10.2817 20.0002 10.5583 19.9819 10.8333 19.9585C11.042 19.941 11.2364 19.8454 11.3778 19.691C11.5193 19.5366 11.5974 19.3346 11.5967 19.1252L11.57 16.1352C11.5633 15.5443 11.7328 14.9649 12.0569 14.4708C12.381 13.9767 12.845 13.5905 13.3897 13.3613C13.9343 13.1322 14.5349 13.0706 15.1147 13.1844C15.6946 13.2982 16.2273 13.5822 16.645 14.0002ZM14.1933 6.70854C14.4323 6.64514 14.6846 6.65401 14.9185 6.73403C15.1524 6.81405 15.3574 6.96163 15.5074 7.15811C15.6574 7.35459 15.7458 7.59114 15.7614 7.83786C15.777 8.08458 15.7191 8.33038 15.595 8.54419C15.4709 8.75799 15.2862 8.93021 15.0643 9.03905C14.8423 9.14789 14.5931 9.18848 14.3481 9.15568C14.103 9.12287 13.8732 9.01815 13.6877 8.85476C13.5022 8.69136 13.3693 8.47663 13.3058 8.23771C13.2637 8.07903 13.2532 7.91359 13.275 7.75086C13.2968 7.58812 13.3504 7.43128 13.4328 7.28927C13.5152 7.14727 13.6248 7.0229 13.7553 6.92325C13.8858 6.82361 14.0346 6.75065 14.1933 6.70854ZM6.50167 14.1252C6.26273 14.1886 6.01035 14.1797 5.77645 14.0997C5.54255 14.0197 5.33763 13.8721 5.1876 13.6756C5.03757 13.4792 4.94917 13.2426 4.93357 12.9959C4.91797 12.7492 4.97588 12.5034 5.09997 12.2896C5.22406 12.0758 5.40876 11.9035 5.63072 11.7947C5.85268 11.6859 6.10193 11.6453 6.34695 11.6781C6.59197 11.7109 6.82177 11.8156 7.00728 11.979C7.19279 12.1424 7.32569 12.3571 7.38917 12.596C7.43133 12.7547 7.44181 12.9202 7.42003 13.0829C7.39824 13.2456 7.34461 13.4025 7.26219 13.5445C7.17977 13.6865 7.07019 13.8109 6.9397 13.9105C6.80921 14.0101 6.66036 14.0831 6.50167 14.1252ZM6.50167 9.12521C6.26273 9.18861 6.01035 9.17974 5.77645 9.09972C5.54255 9.01969 5.33763 8.87211 5.1876 8.67563C5.03757 8.47916 4.94917 8.2426 4.93357 7.99589C4.91797 7.74917 4.97588 7.50337 5.09997 7.28956C5.22406 7.07575 5.40876 6.90354 5.63072 6.79469C5.85268 6.68585 6.10193 6.64527 6.34695 6.67807C6.59197 6.71087 6.82177 6.81559 7.00728 6.97899C7.19279 7.14239 7.32569 7.35712 7.38917 7.59604C7.43133 7.75472 7.44181 7.92015 7.42003 8.08289C7.39824 8.24562 7.34461 8.40247 7.26219 8.54447C7.17977 8.68647 7.07019 8.81085 6.9397 8.91049C6.80921 9.01014 6.66036 9.0831 6.50167 9.12521ZM10.6683 6.62521C10.4294 6.68861 10.177 6.67974 9.94312 6.59971C9.70922 6.51969 9.5043 6.37211 9.35427 6.17563C9.20424 5.97916 9.11584 5.7426 9.10024 5.49589C9.08464 5.24917 9.14255 5.00337 9.26664 4.78956C9.39073 4.57575 9.57543 4.40354 9.79739 4.29469C10.0193 4.18585 10.2686 4.14527 10.5136 4.17807C10.7586 4.21087 10.9884 4.31559 11.1739 4.47899C11.3595 4.64239 11.4924 4.85712 11.5558 5.09604C11.598 5.25472 11.6085 5.42015 11.5867 5.58289C11.5649 5.74562 11.5113 5.90247 11.4289 6.04447C11.3464 6.18648 11.2369 6.31085 11.1064 6.41049C10.9759 6.51014 10.827 6.5831 10.6683 6.62521Z" fill="current"/>
</g>
<defs>
<clipPath id="clip0_1925_4380">
<rect width="20" height="20" fill="white"/>
</clipPath>
</defs>
</svg>
