<svg width="172" height="34" viewBox="0 0 172 34" fill="none" xmlns="http://www.w3.org/2000/svg">
<path d="M42.418 27.38C41.82 27.406 41.144 27.224 40.728 26.522C40.026 25.404 40.468 24.39 41.586 23.584C44.394 21.608 45.434 19.112 45.434 16.174V7.802C45.434 6.008 46.5 5.54 47.592 5.54C48.684 5.54 49.75 6.008 49.75 7.802V16.174C49.75 19.112 50.79 21.426 53.598 23.402C54.716 24.208 55.158 25.222 54.456 26.34C54.066 26.938 53.52 27.224 52.896 27.25C52.506 27.25 52.09 27.198 51.7 26.912C50.036 25.742 48.736 24.234 47.722 22.57C46.786 24.338 45.538 25.872 43.978 26.886C43.51 27.172 42.99 27.354 42.418 27.38ZM59.812 27.848C58.642 27.848 57.706 27.302 57.706 25.56V7.802C57.706 6.06 58.694 5.54 59.812 5.54C60.904 5.54 61.918 6.008 61.918 7.802V25.56C61.918 27.354 60.93 27.848 59.812 27.848ZM84.5691 28.16H69.0731C67.1751 28.16 66.9671 27.38 66.9671 26.34V20.49C66.9671 18.748 67.8251 18.228 68.9431 18.228C69.9571 18.228 70.9191 18.67 71.0231 20.204H82.5931C82.6971 18.722 83.6591 18.228 84.6991 18.228C85.8171 18.228 86.6751 18.774 86.6751 20.49V26.34C86.6751 27.38 86.4671 28.16 84.5691 28.16ZM71.0491 24.832H82.5931V23.532H71.0491V24.832ZM67.5651 17.344C66.9671 17.37 66.2911 17.188 65.8751 16.486C65.1731 15.368 65.5891 14.432 66.7331 13.678C68.1891 12.716 69.2031 12.066 69.8011 10.766C69.9571 10.428 70.0611 10.038 70.1131 9.544H68.2931C66.3951 9.544 65.9271 8.686 65.9271 7.776C65.9271 6.71 66.3951 5.956 68.2931 5.956H76.1451C78.0431 5.956 78.5111 6.71 78.5111 7.776C78.5111 8.686 78.0431 9.544 76.1451 9.544H74.5591C74.6371 10.038 74.7411 10.428 74.9231 10.766C75.6251 12.092 76.4831 12.664 77.8091 13.522C78.9271 14.276 79.3691 15.212 78.6671 16.33C78.2771 16.928 77.7311 17.214 77.1071 17.24C76.7171 17.24 76.3011 17.188 75.9111 16.902C74.6891 15.992 73.5191 14.978 72.5051 13.756C71.5951 15.004 70.3991 16.122 69.1251 16.85C68.6831 17.136 68.1111 17.318 67.5651 17.344ZM84.5431 17.526C83.3731 17.526 82.4371 16.98 82.4371 15.238V7.802C82.4371 6.06 83.4251 5.54 84.5431 5.54C85.6351 5.54 86.6491 6.008 86.6491 7.802V15.238C86.6491 17.032 85.6611 17.526 84.5431 17.526ZM94.6622 26.886C94.0122 26.184 93.9342 25.014 94.6362 24.156C96.5602 21.816 96.7422 20.022 96.7422 17.11V9.44H92.3742C90.4762 9.44 90.0082 8.686 90.0082 7.62C90.0082 6.684 90.3982 5.852 92.2702 5.852H99.0562C100.928 5.852 101.058 6.606 101.058 7.828V17.968C101.058 19.944 100.304 24.702 98.0422 26.756C97.1062 27.64 95.7282 28.03 94.6622 26.886ZM107.688 27.848C106.518 27.848 105.582 27.302 105.582 25.56V7.802C105.582 6.06 106.57 5.54 107.688 5.54C108.78 5.54 109.794 6.008 109.794 7.802V14.042H111.848C113.824 14.042 114.214 15.03 114.214 15.862C114.214 16.902 113.824 17.734 111.848 17.734H109.794V25.56C109.794 27.354 108.806 27.848 107.688 27.848ZM134.031 13.418H118.951C117.053 13.418 116.845 12.638 116.845 11.598V7.802C116.845 6.06 117.833 5.54 118.951 5.54C120.043 5.54 121.057 6.008 121.057 7.802V10.09H134.031C135.721 10.09 136.007 10.948 136.007 11.728C136.007 12.664 135.721 13.418 134.031 13.418ZM134.031 28.108H118.951C117.053 28.108 116.845 27.328 116.845 26.288V22.934C116.845 21.192 117.833 20.672 118.951 20.672C120.043 20.672 121.057 21.14 121.057 22.934V24.78H134.031C135.721 24.78 136.007 25.638 136.007 26.418C136.007 27.354 135.721 28.108 134.031 28.108ZM135.903 19.086H117.001C115.259 19.086 115.025 18.384 115.025 17.422C115.025 16.668 115.259 15.81 117.001 15.81H135.903C137.645 15.81 137.879 16.668 137.879 17.422C137.879 18.384 137.645 19.086 135.903 19.086ZM166.245 28.108H151.217C149.215 28.108 149.111 27.406 149.111 26.392V22.492C149.111 21.79 149.345 21.062 151.087 21.062H163.541V19.996H151.009C149.267 19.996 149.033 19.424 149.033 18.514C149.033 17.76 149.319 16.98 151.009 16.98H165.777C167.415 16.98 167.753 17.76 167.753 18.488V22.544C167.753 23.376 167.441 23.948 165.777 23.948H153.323V25.014H166.245C167.935 25.014 168.351 25.69 168.351 26.548C168.351 27.562 167.935 28.108 166.245 28.108ZM156.859 15.498H150.177C148.279 15.498 148.071 14.718 148.071 13.678V8.062C148.071 6.32 149.059 5.8 150.177 5.8C151.269 5.8 152.283 6.268 152.283 8.062V11.962H156.859C158.861 11.962 159.225 12.846 159.225 13.678C159.225 14.744 158.757 15.498 156.859 15.498ZM165.049 16.096C163.879 16.096 162.943 15.55 162.943 13.808V7.802C162.943 6.06 163.931 5.54 165.049 5.54C166.141 5.54 167.155 6.008 167.155 7.802V8.92H169.053C171.029 8.92 171.419 9.908 171.419 10.74C171.419 11.78 171.029 12.612 169.053 12.612H167.155V13.808C167.155 15.602 166.167 16.096 165.049 16.096Z" fill="#2D2D2D"/>
<path d="M1.3335 9.56937V25.3333C1.33582 27.1008 2.10919 28.7953 3.48395 30.045C4.85871 31.2948 6.72262 31.9979 8.66683 32H23.3335C25.2777 31.9979 27.1416 31.2948 28.5164 30.045C29.8911 28.7953 30.6645 27.1008 30.6668 25.3333V9.56937C30.6667 8.85615 30.4568 8.15592 30.0589 7.54124C29.661 6.92655 29.0896 6.41977 28.4038 6.07338L16.713 0.168055C16.495 0.0578413 16.2496 0 16.0002 0C15.7507 0 15.5054 0.0578413 15.2874 0.168055L3.59656 6.07338C2.91076 6.41977 2.3393 6.92655 1.94139 7.54124C1.54349 8.15592 1.33361 8.85615 1.3335 9.56937ZM16.0002 7.33337C16.4353 7.33337 16.8606 7.45067 17.2224 7.67044C17.5842 7.8902 17.8662 8.20255 18.0327 8.56801C18.1992 8.93346 18.2428 9.33559 18.1579 9.72355C18.073 10.1115 17.8635 10.4679 17.5558 10.7476C17.2481 11.0273 16.8561 11.2178 16.4294 11.2949C16.0026 11.3721 15.5603 11.3325 15.1583 11.1811C14.7563 11.0298 14.4127 10.7734 14.1709 10.4445C13.9292 10.1156 13.8002 9.72893 13.8002 9.33337C13.8002 8.80294 14.0319 8.29423 14.4445 7.91916C14.8571 7.54409 15.4167 7.33337 16.0002 7.33337Z" fill="#F12D2D"/>
<rect x="10.6665" y="6.66667" width="10.6667" height="8" fill="#F12D2D"/>
<path d="M18.9602 13.3333C17.7535 13.3333 16.6735 13.8607 16.0002 14.6697C15.3268 13.8607 14.2468 13.3333 13.0402 13.3333C10.9935 13.3333 9.3335 14.8315 9.3335 16.6831C9.3335 17.3963 9.46016 18.0554 9.68016 18.6667C10.7335 21.6629 13.9802 23.4547 15.5868 23.9461C15.8135 24.018 16.1868 24.018 16.4135 23.9461C18.0202 23.4547 21.2668 21.6629 22.3202 18.6667C22.5402 18.0554 22.6668 17.3963 22.6668 16.6831C22.6668 14.8315 21.0068 13.3333 18.9602 13.3333Z" fill="white"/>
</svg>
