<svg width="50" height="50" viewBox="0 0 50 50" fill="none" xmlns="http://www.w3.org/2000/svg">
<path d="M25.9065 41.0284C25.7348 39.2434 25.2777 37.5012 24.5947 35.8226C24.089 34.5822 23.353 33.5532 22.1625 32.9263C20.5312 32.0684 19.2273 30.8677 18.1042 29.4204C16.8208 27.7725 16.4815 25.8307 16.2366 23.8514C16.2072 23.6072 16.0925 23.1708 16.5271 23.0526C16.9203 22.9477 17.2263 23.1407 17.459 23.4435C18.1356 24.3369 18.836 25.2087 19.4683 26.1345C21.1316 28.5658 22.8033 30.9882 24.347 33.6158C24.3199 31.7798 23.8562 30.116 23.7649 28.4069C23.7137 27.4474 23.4921 26.4823 23.7315 25.539C24.1544 23.8851 24.6456 22.2518 25.1157 20.6122C25.448 19.4473 24.5035 18.3582 23.3075 18.5272C22.4318 18.6525 21.6495 18.2696 21.3687 17.5476C21.2656 17.2812 21.0777 16.9632 21.3311 16.7042C21.5676 16.463 21.7801 16.7281 22.0001 16.8262C22.0934 16.8688 22.229 16.8094 22.3323 16.8377C22.5705 16.9041 22.7956 16.9377 22.9093 16.6565C23.0313 16.3577 22.7702 16.2816 22.5943 16.1423C21.7273 15.4611 20.9865 14.6373 20.3844 13.735C19.617 12.5818 20.4144 10.8375 21.7888 10.401C22.1987 10.2697 22.6177 10.2127 23.0033 9.96215C23.3514 9.73172 23.7068 9.82776 24.0296 10.1836C24.3772 10.5614 24.4862 11.1022 24.9437 11.43C25.0153 11.3168 25.0734 11.2196 25.1333 11.1258C25.849 10.0023 26.3294 9.657 27.5586 10.2412C27.659 10.2888 27.7875 10.3477 27.8807 10.3243C28.6103 10.1318 28.7677 10.6643 28.9397 11.1582C29.0152 11.3733 29.1492 11.5659 29.2208 11.7655C29.3321 12.0803 29.4489 12.0927 29.7602 12.0406C30.6905 11.8772 31.635 11.8473 32.5804 11.8521C32.9905 11.8528 33.2734 12.0273 33.2606 12.4395C33.2424 13.0308 33.433 13.5676 33.5753 14.1214C33.6515 14.4199 33.6403 14.7035 33.4968 14.9786C32.9559 16.0172 32.2835 16.95 31.3569 17.6797C30.9081 18.0346 30.3307 18.1411 30.0202 18.7789C29.7112 19.4113 28.9289 19.3985 28.2638 19.3494C27.0363 19.2621 26.2996 19.639 25.8594 20.7338C24.9334 23.0361 24.5838 25.4439 24.7988 27.9105C24.9505 29.6665 25.0935 31.4228 25.2626 33.1783C25.4314 34.9251 25.6443 36.6308 26.2295 38.2912C27.546 37.2778 27.6154 37.2098 27.7334 36.6487C27.9969 35.4458 28.1746 34.2227 28.5483 33.0446C28.5753 32.9552 28.6645 32.8502 28.5022 32.7035C27.3805 31.6785 27.2894 30.4716 27.9424 29.157C28.0016 29.0372 28.0839 28.9358 27.9738 28.7878C27.6685 28.3741 27.59 27.8654 27.5069 27.3812C27.2421 25.8664 28.1059 23.7031 29.7428 22.9588C29.9522 22.8643 30.1768 22.8806 30.2274 22.9504C30.5631 23.3963 30.8423 23.1278 31.1479 22.9333C32.0291 22.3821 32.4753 22.5573 32.7713 23.5707C32.9041 24.0327 32.8829 24.5772 33.526 24.7086C33.713 24.7451 33.7086 24.9589 33.7406 25.1092C34.1682 26.854 33.9458 28.405 32.4397 29.5993C32.2239 29.7721 31.9392 29.907 31.8414 30.2016C31.4213 31.4576 30.5439 32.3284 29.4561 33.0122C29.2973 33.1105 29.1859 33.1657 29.1591 33.3872C29.0953 33.9016 28.9426 34.4063 28.8909 34.9186C28.7256 36.5844 28.2229 38.0564 26.7027 38.9939C26.4174 39.1687 26.3595 39.3979 26.4421 39.7414C26.6333 40.551 26.7917 41.365 26.7894 42.2165L25.8611 42.5727C25.9375 42.0736 25.9597 41.5638 25.9085 41.0405L25.9065 41.0284ZM22.6441 32.3776C22.6747 32.3524 22.7037 32.3325 22.7343 32.3073C22.7272 32.3023 22.7182 32.2938 22.7077 32.2907C22.7765 32.1393 22.5942 32.021 22.5344 31.9341C20.8235 29.4137 19.0954 26.9026 17.3623 24.3985C17.279 24.2757 17.1965 24.1216 16.9103 24.081C17.2681 26.6166 17.9649 28.9134 20.1036 30.513C20.9413 31.1394 21.8545 31.6681 22.6254 32.392C22.6254 32.392 22.6254 32.392 22.6288 32.3902C22.6288 32.3902 22.6288 32.3902 22.6272 32.3954C22.6341 32.3918 22.6357 32.3865 22.6373 32.3813L22.6441 32.3776ZM26.0237 18.3504C26.0237 18.3504 26.0371 18.3917 26.0446 18.4141C26.0676 18.3665 26.0906 18.319 26.1102 18.2732C26.1173 18.2783 26.1225 18.2798 26.1331 18.283C26.1276 18.2728 26.1221 18.2625 26.1166 18.2522C26.342 17.5543 26.6811 16.8793 26.4874 16.1062C26.4874 16.1062 26.4924 16.0992 26.494 16.0939C26.5008 16.0902 26.5114 16.0934 26.5182 16.0897C26.5534 16.1061 26.5886 16.1225 26.6238 16.1389L26.6343 16.0761C26.5961 16.0789 26.5564 16.0869 26.5182 16.0897C26.5059 16.0831 26.4935 16.0765 26.4777 16.0718C26.4832 16.082 26.4801 16.0925 26.4821 16.1047C26.1065 16.7772 25.7257 17.4482 26.1113 18.2506C26.1113 18.2506 26.1081 18.2611 26.1065 18.2664C26.1065 18.2664 26.1065 18.2664 26.1031 18.2682C26.0324 18.2268 26.0184 18.2828 26.0166 18.3454L26.0237 18.3504ZM25.2244 18.5361C25.1199 17.658 24.5189 17.1692 23.7862 17.3148C23.2522 17.4202 22.7139 17.4352 22.0864 17.4893C23.018 18.3651 24.445 17.2616 25.2228 18.5414L25.2244 18.5361ZM23.4871 10.5446C23.429 10.5184 23.3591 10.503 23.2967 10.51C21.4025 10.6916 20.5476 12.057 21.375 13.742C22.0089 15.0327 23.2467 15.7973 24.3353 16.6948C23.979 15.2642 23.739 13.8947 24.4143 12.5065C24.5803 12.1665 23.8447 10.7188 23.4837 10.5464L23.4871 10.5446ZM27.1128 10.7663C26.6143 10.3371 26.1946 10.6148 25.9077 11.0416C24.987 12.4158 24.2555 13.8472 24.7997 15.5957C24.9621 16.1212 25.1746 16.633 25.2735 17.188C25.6074 16.2647 26.1163 15.5119 26.7507 14.8373C26.8858 14.6945 27.0088 14.4965 27.2697 14.6299C27.5235 14.7583 27.4307 14.9799 27.4187 15.1714C27.3799 15.7737 27.1476 16.3519 27.1816 17.0078C29.366 15.089 29.0645 12.4528 27.1181 10.7679L27.1128 10.7663ZM31.5085 16.3913C31.6848 15.9225 31.9134 15.4608 32.2008 15.0513C32.7506 14.2679 32.4681 13.4278 32.4382 12.6068C32.4284 12.3829 32.2329 12.4127 32.0682 12.426C31.4336 12.475 30.8055 12.5691 30.1618 12.5437C29.847 12.5316 29.5809 12.7094 29.6072 13.1535C29.6877 14.4145 29.3263 15.5332 28.465 16.4835C28.1633 16.8169 27.9096 17.1907 27.6313 17.5512C28.6106 18.1459 29.4413 17.4675 30.3153 17.4048C30.8339 17.3694 31.2886 16.9761 31.5069 16.3966L31.5085 16.3913ZM28.9194 18.6238C28.2075 18.5203 27.4605 17.7836 26.8419 18.7758C27.536 18.6156 28.2327 18.6743 28.9194 18.6238ZM32.259 23.9552C32.0503 23.2034 31.4927 23.7664 31.1274 23.6932C30.8216 23.6323 30.9194 24.0205 31.0201 24.2662C31.1561 24.5943 31.2527 24.9391 31.3815 25.3195C31.817 24.9233 32.479 24.7362 32.259 23.9552ZM30.505 26.2251C31.0695 25.7818 30.5834 25.3019 30.5376 24.8462C30.4908 24.4131 30.2312 24.019 29.8253 23.9191C29.4841 23.8331 29.1498 24.1222 28.9019 24.3916C28.5159 24.8142 28.3829 25.3392 28.3079 25.8904C28.2075 26.6491 28.3968 27.3893 28.406 28.0893C28.501 28.316 28.4913 28.5283 28.8041 28.5282C29.1152 28.5334 29.112 28.3545 29.1619 28.1515C29.3597 27.3362 29.8623 26.7279 30.5032 26.2216L30.505 26.2251ZM32.7003 25.5033C32.583 25.2841 32.4421 25.2186 32.28 25.3847C31.1284 26.5829 29.4742 27.4512 29.5571 29.4819C29.5671 29.7145 29.5627 29.9283 29.7206 30.2315C30.2263 29.6126 31.0056 29.768 31.591 29.3885C33.1016 28.4165 33.5125 27.0774 32.6969 25.5051L32.7003 25.5033ZM28.8614 29.7707C28.8078 29.6541 28.8116 29.4802 28.6441 29.4554C28.4295 29.4249 28.393 29.6118 28.3275 29.7527C27.996 30.4501 28.2397 31.0862 28.5486 31.7535C29.118 31.1137 29.1816 30.4673 28.8667 29.7723L28.8614 29.7707ZM29.2011 32.2808C29.2011 32.2808 29.2045 32.279 29.2079 32.2772C29.2095 32.2719 29.2111 32.2667 29.2143 32.2561C30.1266 31.8865 30.6014 31.0948 31.2268 30.2797C30.2185 30.3878 29.5062 31.1393 29.2143 32.2561C29.2074 32.2598 29.1972 32.2653 29.1903 32.269C29.1974 32.274 29.1992 32.2774 29.2063 32.2824C29.1639 32.3184 29.1215 32.3543 29.0774 32.3955C29.114 32.398 29.1563 32.4194 29.1837 32.4047C29.2385 32.3754 29.272 32.331 29.2082 32.2858L29.2011 32.2808Z" fill="#FF9099"/>
</svg>
