<svg width="308" height="55" viewBox="0 0 308 55" fill="none" xmlns="http://www.w3.org/2000/svg">
<path d="M25.816 24.7699C25.0094 25.0633 23.9827 25.5949 22.736 26.3649C21.526 27.1349 20.1877 28.1066 18.721 29.2799C17.291 30.4166 15.7877 31.7183 14.211 33.1849C12.671 34.6149 11.1677 36.1366 9.70102 37.7499C7.28102 40.4999 5.74102 42.6816 5.08102 44.2949C4.42102 45.8716 4.40268 46.8066 5.02602 47.0999C5.68602 47.4299 6.85935 47.0816 8.54602 46.0549C10.2694 45.0649 12.286 43.3416 14.596 40.8849C15.8427 39.6016 17.016 38.2449 18.116 36.8149C19.216 35.3483 20.2427 33.8999 21.196 32.4699C22.1494 31.0399 23.011 29.6649 23.781 28.3449C24.5877 27.0249 25.266 25.8333 25.816 24.7699ZM39.621 42.3699C40.611 41.8199 41.711 40.7933 42.921 39.2899C43.9844 38.0066 45.231 36.1733 46.661 33.7899C48.1277 31.3699 49.7777 28.1433 51.611 24.1099C51.7577 23.9266 51.9594 23.8349 52.216 23.8349C52.4727 23.8349 52.711 23.8899 52.931 23.9999C53.1877 24.1099 53.371 24.2933 53.481 24.5499C53.6277 24.7699 53.6277 25.0266 53.481 25.3199C52.3444 28.2166 51.171 30.8933 49.961 33.3499C48.751 35.8066 47.541 37.9699 46.331 39.8399C45.1577 41.7099 44.0394 43.2683 42.976 44.5149C41.9127 45.7249 40.941 46.5499 40.061 46.9899C39.5477 47.2466 38.961 47.3383 38.301 47.2649C37.641 47.1916 36.9994 47.0266 36.376 46.7699C35.7527 46.5133 35.1844 46.2016 34.671 45.8349C34.1944 45.4683 33.8827 45.0833 33.736 44.6799C33.406 43.7266 33.351 42.4249 33.571 40.7749C33.791 39.1249 34.1944 37.2733 34.781 35.2199C35.4044 33.1299 36.156 30.9116 37.036 28.5649C37.9527 26.1816 38.9244 23.7799 39.951 21.3599C39.4377 21.3233 38.851 21.3233 38.191 21.3599C37.5677 21.3966 36.926 21.4699 36.266 21.5799C35.6427 21.6533 35.0377 21.7633 34.451 21.9099C33.8644 22.0566 33.3877 22.2033 33.021 22.3499C32.4344 23.8899 31.6827 25.5949 30.766 27.4649C29.886 29.3349 28.8594 31.2416 27.686 33.1849C26.5494 35.1283 25.266 37.0533 23.836 38.9599C22.4427 40.8299 20.9577 42.5533 19.381 44.1299C17.621 45.8533 15.8427 47.2283 14.046 48.2549C12.2494 49.2816 10.5444 49.9783 8.93102 50.3449C7.35435 50.7483 5.92435 50.8216 4.64102 50.5649C3.39435 50.3449 2.44102 49.8133 1.78102 48.9699C1.04768 48.1266 0.699351 46.9899 0.736017 45.5599C0.772684 44.0933 1.34102 42.3699 2.44102 40.3899C3.79768 37.9699 5.97935 35.2566 8.98602 32.2499C11.516 29.7566 14.3394 27.4649 17.456 25.3749C20.5727 23.2849 24.0194 21.5799 27.796 20.2599C27.9427 19.9299 28.1444 19.3433 28.401 18.4999C28.6944 17.6199 28.951 16.6483 29.171 15.5849C29.4277 14.5216 29.6294 13.4033 29.776 12.2299C29.9594 11.0566 29.996 9.97493 29.886 8.98493C29.8127 7.95826 29.5744 7.09659 29.171 6.39993C28.7677 5.66659 28.1444 5.22659 27.301 5.07993C26.2377 4.89659 24.991 5.07993 23.561 5.62993C22.131 6.14326 20.646 6.91326 19.106 7.93993C17.6027 8.92993 16.0994 10.1216 14.596 11.5149C13.1294 12.8716 11.846 14.3016 10.746 15.8049C9.64602 17.3083 8.78435 18.8299 8.16102 20.3699C7.53768 21.8733 7.33602 23.2849 7.55602 24.6049C7.73935 25.6316 8.32602 26.4199 9.31602 26.9699C10.306 27.4833 11.4244 27.5199 12.671 27.0799C12.1577 27.5199 11.5344 27.8683 10.801 28.1249C10.0677 28.3449 9.27935 28.4733 8.43602 28.5099C7.62935 28.5099 6.82268 28.4183 6.01602 28.2349C5.20935 28.0149 4.49435 27.6666 3.87102 27.1899C3.24768 26.6766 2.75268 26.0349 2.38602 25.2649C2.05602 24.4583 1.94602 23.5049 2.05602 22.4049C2.20268 20.9749 2.67935 19.4166 3.48602 17.7299C4.32935 16.0066 5.41102 14.3199 6.73102 12.6699C8.05102 10.9833 9.55435 9.42493 11.241 7.99493C12.9644 6.56493 14.7794 5.39159 16.686 4.47493C18.5927 3.52159 20.536 2.91659 22.516 2.65993C24.5327 2.40326 26.4944 2.64159 28.401 3.37493C30.6377 4.21826 32.2877 5.18993 33.351 6.28993C34.451 7.35326 35.1294 8.54493 35.386 9.86493C35.6794 11.1483 35.6794 12.5416 35.386 14.0449C35.1294 15.5483 34.781 17.1433 34.341 18.8299C35.881 18.6833 37.1644 18.6283 38.191 18.6649C39.2544 18.7016 40.1894 18.8116 40.996 18.9949C41.766 17.4183 42.4994 15.9149 43.196 14.4849C43.9294 13.0183 44.6077 11.6983 45.231 10.5249C45.8544 9.31493 46.4227 8.26993 46.936 7.38993C47.4494 6.50993 47.8894 5.84993 48.256 5.40993C48.6227 4.96993 49.1177 4.84159 49.741 5.02492C50.401 5.20826 51.006 5.53826 51.556 6.01493C52.1427 6.45493 52.5827 6.96826 52.876 7.55492C53.206 8.10493 53.206 8.54493 52.876 8.87493C52.2527 9.49826 51.4094 10.6899 50.346 12.4499C49.2827 14.2099 48.1644 16.2449 46.991 18.5549C45.8177 20.8283 44.6627 23.2483 43.526 25.8149C42.426 28.3816 41.491 30.8016 40.721 33.0749C39.951 35.3483 39.4377 37.3283 39.181 39.0149C38.9244 40.7016 39.071 41.8199 39.621 42.3699Z" fill="#FF968F"/>
<path d="M71.7904 24.9899C71.9004 24.8433 72.1021 24.7883 72.3954 24.8249C72.7254 24.8249 73.0188 24.8983 73.2754 25.0449C73.5688 25.1916 73.7888 25.3933 73.9354 25.6499C74.1188 25.8699 74.1371 26.1083 73.9904 26.3649C73.2938 27.5749 72.4871 28.9316 71.5704 30.4349C70.6904 31.9016 69.7371 33.3499 68.7104 34.7799C67.7204 36.2099 66.6938 37.5116 65.6304 38.6849C64.5671 39.8216 63.5221 40.6283 62.4954 41.1049C61.9454 41.3616 61.3588 41.4533 60.7354 41.3799C60.1488 41.2699 59.5988 41.0683 59.0854 40.7749C58.6088 40.4449 58.1871 40.0599 57.8204 39.6199C57.4904 39.1433 57.3071 38.6849 57.2704 38.2449C57.1971 37.6583 57.2704 36.8516 57.4904 35.8249C57.7104 34.7983 57.9488 33.8633 58.2054 33.0199C57.7654 33.5333 57.2888 34.1383 56.7754 34.8349C56.2988 35.4949 55.7671 36.2099 55.1804 36.9799C54.5938 37.7499 53.9704 38.5199 53.3104 39.2899C52.6871 40.0599 52.0271 40.7749 51.3304 41.4349C51.0004 41.7649 50.4871 41.8933 49.7904 41.8199C49.1304 41.7466 48.4704 41.5633 47.8104 41.2699C47.1504 40.9399 46.5821 40.5366 46.1054 40.0599C45.5921 39.5466 45.3721 39.0149 45.4454 38.4649C45.5554 37.0716 45.8854 35.5866 46.4354 34.0099C46.9854 32.4333 47.6638 30.9116 48.4704 29.4449C49.2404 27.9416 50.1021 26.5483 51.0554 25.2649C52.0454 23.9816 53.0171 22.9366 53.9704 22.1299C54.6671 21.5799 55.3088 21.2683 55.8954 21.1949C56.4821 21.1216 57.0504 21.1949 57.6004 21.4149C58.1504 21.5983 58.7004 21.8916 59.2504 22.2949C59.8004 22.6616 60.3871 23.0283 61.0104 23.3949C61.4138 22.9549 61.7988 22.4966 62.1654 22.0199C62.5688 21.5066 62.9904 21.0116 63.4304 20.5349C63.6871 20.2049 64.0904 20.0766 64.6404 20.1499C65.2271 20.2233 65.7771 20.4249 66.2904 20.7549C66.8038 21.0849 67.2071 21.4883 67.5004 21.9649C67.8304 22.4049 67.8671 22.8266 67.6104 23.2299C66.3638 25.3566 65.3554 27.2449 64.5854 28.8949C63.8521 30.5449 63.3021 31.9383 62.9354 33.0749C62.6054 34.2116 62.4404 35.0733 62.4404 35.6599C62.4771 36.2466 62.6238 36.5399 62.8804 36.5399C63.6138 36.5033 64.7321 35.5133 66.2354 33.5699C67.7388 31.6266 69.5904 28.7666 71.7904 24.9899ZM58.4254 27.1349C58.5354 26.9883 58.5904 26.7316 58.5904 26.3649C58.5904 25.9983 58.5171 25.6683 58.3704 25.3749C58.2604 25.0449 58.0771 24.8433 57.8204 24.7699C57.5638 24.6966 57.2338 24.8799 56.8304 25.3199C55.9871 26.1266 55.1988 27.0799 54.4654 28.1799C53.7688 29.2799 53.1454 30.3616 52.5954 31.4249C52.0821 32.4883 51.6604 33.4783 51.3304 34.3949C51.0004 35.2749 50.8354 35.9349 50.8354 36.3749C51.2388 36.0449 51.7704 35.5133 52.4304 34.7799C53.1271 34.0099 53.8421 33.1666 54.5754 32.2499C55.3088 31.3333 56.0238 30.4166 56.7204 29.4999C57.4171 28.5833 57.9854 27.7949 58.4254 27.1349Z" fill="#FF968F"/>
<path d="M86.4638 27.1899C88.3705 26.1266 89.9472 25.5033 91.1938 25.3199C92.4405 25.0999 93.6505 25.3566 94.8238 26.0899C94.2005 26.2733 93.3572 26.6399 92.2938 27.1899C91.2672 27.7399 90.2222 28.3633 89.1588 29.0599C88.0955 29.7566 87.1422 30.4349 86.2988 31.0949C85.4555 31.7549 84.9422 32.2683 84.7588 32.6349C84.5388 33.0749 84.1722 33.6799 83.6588 34.4499C83.1822 35.2199 82.5955 36.0266 81.8988 36.8699C81.2022 37.7133 80.4505 38.5566 79.6438 39.3999C78.8738 40.2433 78.0855 40.9583 77.2788 41.5449C76.5455 42.0583 75.8305 42.4066 75.1338 42.5899C74.4372 42.7366 73.7772 42.5899 73.1538 42.1499C72.4572 41.6366 72.1088 41.0499 72.1088 40.3899C72.1455 39.7299 72.3655 39.0333 72.7688 38.2999C73.2088 37.5666 73.7955 36.8333 74.5288 36.0999C75.2988 35.3666 76.0505 34.6516 76.7838 33.9549C77.5538 33.2583 78.2688 32.6349 78.9288 32.0849C79.6255 31.4983 80.1205 31.0216 80.4138 30.6549C80.6705 30.3249 80.9088 29.8849 81.1288 29.3349C81.3855 28.7483 81.5688 28.1616 81.6788 27.5749C81.8255 26.9883 81.8988 26.4566 81.8988 25.9799C81.8988 25.4666 81.7888 25.1366 81.5688 24.9899C80.4688 25.2466 79.3322 26.0533 78.1588 27.4099C76.9855 28.7666 75.8488 30.4166 74.7488 32.3599C73.6488 34.2666 72.5855 36.3566 71.5588 38.6299C70.5688 40.8666 69.6705 43.0116 68.8638 45.0649C68.0572 47.1183 67.3972 48.9516 66.8838 50.5649C66.3338 52.1783 65.9672 53.3149 65.7838 53.9749C65.6738 54.3783 65.3438 54.5983 64.7938 54.6349C64.2438 54.6716 63.6755 54.5799 63.0888 54.3599C62.4655 54.1399 61.9522 53.8099 61.5488 53.3699C61.1088 52.9666 60.9805 52.5083 61.1638 51.9949C61.4572 51.1883 61.9338 49.9233 62.5938 48.1999C63.2538 46.5133 64.0055 44.6066 64.8488 42.4799C65.6922 40.3533 66.5905 38.1166 67.5438 35.7699C68.4972 33.3866 69.4138 31.1133 70.2938 28.9499C71.1738 26.7499 71.9805 24.7699 72.7138 23.0099C73.4472 21.2133 74.0155 19.8383 74.4188 18.8849C74.5655 18.4449 74.8955 18.2249 75.4088 18.2249C75.9588 18.1883 76.4905 18.2799 77.0038 18.4999C77.5538 18.6833 78.0122 18.9399 78.3788 19.2699C78.7455 19.5999 78.8555 19.9116 78.7088 20.2049C78.5255 20.5716 78.3422 20.9749 78.1588 21.4149C77.9755 21.8549 77.7372 22.4783 77.4438 23.2849C77.8105 22.9916 78.1588 22.7349 78.4888 22.5149C78.8555 22.2583 79.2038 22.0749 79.5338 21.9649C79.9005 21.8183 80.2855 21.7449 80.6888 21.7449C81.0922 21.7083 81.5505 21.7816 82.0638 21.9649C82.9438 22.2583 83.6772 22.5149 84.2638 22.7349C84.8505 22.9183 85.3088 23.1749 85.6388 23.5049C85.9688 23.8349 86.1888 24.2749 86.2988 24.8249C86.4455 25.3749 86.5005 26.1633 86.4638 27.1899Z" fill="#FF968F"/>
<path d="M105.907 27.1899C107.814 26.1266 109.391 25.5033 110.637 25.3199C111.884 25.0999 113.094 25.3566 114.267 26.0899C113.644 26.2733 112.801 26.6399 111.737 27.1899C110.711 27.7399 109.666 28.3633 108.602 29.0599C107.539 29.7566 106.586 30.4349 105.742 31.0949C104.899 31.7549 104.386 32.2683 104.202 32.6349C103.982 33.0749 103.616 33.6799 103.102 34.4499C102.626 35.2199 102.039 36.0266 101.342 36.8699C100.646 37.7133 99.8939 38.5566 99.0872 39.3999C98.3172 40.2433 97.5289 40.9583 96.7222 41.5449C95.9889 42.0583 95.2738 42.4066 94.5772 42.5899C93.8805 42.7366 93.2205 42.5899 92.5972 42.1499C91.9005 41.6366 91.5522 41.0499 91.5522 40.3899C91.5889 39.7299 91.8089 39.0333 92.2122 38.2999C92.6522 37.5666 93.2389 36.8333 93.9722 36.0999C94.7422 35.3666 95.4939 34.6516 96.2272 33.9549C96.9972 33.2583 97.7122 32.6349 98.3722 32.0849C99.0689 31.4983 99.5639 31.0216 99.8572 30.6549C100.114 30.3249 100.352 29.8849 100.572 29.3349C100.829 28.7483 101.012 28.1616 101.122 27.5749C101.269 26.9883 101.342 26.4566 101.342 25.9799C101.342 25.4666 101.232 25.1366 101.012 24.9899C99.9122 25.2466 98.7755 26.0533 97.6022 27.4099C96.4289 28.7666 95.2922 30.4166 94.1922 32.3599C93.0922 34.2666 92.0289 36.3566 91.0022 38.6299C90.0122 40.8666 89.1139 43.0116 88.3072 45.0649C87.5005 47.1183 86.8405 48.9516 86.3272 50.5649C85.7772 52.1783 85.4105 53.3149 85.2272 53.9749C85.1172 54.3783 84.7872 54.5983 84.2372 54.6349C83.6872 54.6716 83.1189 54.5799 82.5322 54.3599C81.9089 54.1399 81.3955 53.8099 80.9922 53.3699C80.5522 52.9666 80.4239 52.5083 80.6072 51.9949C80.9005 51.1883 81.3772 49.9233 82.0372 48.1999C82.6972 46.5133 83.4489 44.6066 84.2922 42.4799C85.1355 40.3533 86.0339 38.1166 86.9872 35.7699C87.9405 33.3866 88.8572 31.1133 89.7372 28.9499C90.6172 26.7499 91.4239 24.7699 92.1572 23.0099C92.8905 21.2133 93.4589 19.8383 93.8622 18.8849C94.0089 18.4449 94.3389 18.2249 94.8522 18.2249C95.4022 18.1883 95.9339 18.2799 96.4472 18.4999C96.9972 18.6833 97.4555 18.9399 97.8222 19.2699C98.1889 19.5999 98.2989 19.9116 98.1522 20.2049C97.9689 20.5716 97.7855 20.9749 97.6022 21.4149C97.4189 21.8549 97.1805 22.4783 96.8872 23.2849C97.2539 22.9916 97.6022 22.7349 97.9322 22.5149C98.2989 22.2583 98.6472 22.0749 98.9772 21.9649C99.3439 21.8183 99.7289 21.7449 100.132 21.7449C100.536 21.7083 100.994 21.7816 101.507 21.9649C102.387 22.2583 103.121 22.5149 103.707 22.7349C104.294 22.9183 104.752 23.1749 105.082 23.5049C105.412 23.8349 105.632 24.2749 105.742 24.8249C105.889 25.3749 105.944 26.1633 105.907 27.1899Z" fill="#FF968F"/>
<path d="M132.116 26.9699C132.482 26.7866 132.757 26.8049 132.941 27.0249C133.124 27.2083 133.197 27.5016 133.161 27.9049C133.161 28.2716 133.051 28.6933 132.831 29.1699C132.611 29.6466 132.262 30.0499 131.786 30.3799C130.356 31.2599 129.017 32.1399 127.771 33.0199C126.561 33.8633 125.387 34.7616 124.251 35.7149C123.737 36.1183 123.352 36.5766 123.096 37.0899C122.362 38.5933 121.501 40.2616 120.511 42.0949C119.521 43.9283 118.439 45.6699 117.266 47.3199C116.092 49.0066 114.864 50.5099 113.581 51.8299C112.297 53.1499 111.032 54.0483 109.786 54.5249C109.309 54.7083 108.649 54.6899 107.806 54.4699C106.962 54.2866 106.211 53.9199 105.551 53.3699C104.854 52.8566 104.377 52.1783 104.121 51.3349C103.827 50.5283 104.011 49.5933 104.671 48.5299C105.514 47.1733 106.669 45.7799 108.136 44.3499C109.602 42.8833 111.069 41.5266 112.536 40.2799C114.039 39.0333 115.359 37.9333 116.496 36.9799C117.669 36.0266 118.347 35.3666 118.531 34.9999C118.714 34.6333 118.916 34.1749 119.136 33.6249C119.392 33.0383 119.631 32.4516 119.851 31.8649C120.071 31.2416 120.291 30.6549 120.511 30.1049C120.731 29.5183 120.896 29.0233 121.006 28.6199C120.456 29.5366 119.814 30.4716 119.081 31.4249C118.384 32.3416 117.669 33.2216 116.936 34.0649C116.202 34.9083 115.451 35.6783 114.681 36.3749C113.947 37.0716 113.251 37.6399 112.591 38.0799C112.187 38.3366 111.656 38.4099 110.996 38.2999C110.336 38.1899 109.712 37.9699 109.126 37.6399C108.502 37.3099 107.989 36.9066 107.586 36.4299C107.182 35.9166 107.036 35.4033 107.146 34.8899C107.329 33.9733 107.622 32.9283 108.026 31.7549C108.392 30.5449 108.832 29.3349 109.346 28.1249C109.859 26.8783 110.446 25.6866 111.106 24.5499C111.766 23.4133 112.462 22.4049 113.196 21.5249C113.452 21.2316 113.856 21.1216 114.406 21.1949C114.992 21.2683 115.542 21.4516 116.056 21.7449C116.606 22.0016 117.027 22.3316 117.321 22.7349C117.614 23.1383 117.596 23.5233 117.266 23.8899C116.826 24.4033 116.276 25.2099 115.616 26.3099C114.992 27.4099 114.424 28.5099 113.911 29.6099C113.397 30.7099 113.012 31.6633 112.756 32.4699C112.536 33.2766 112.591 33.6433 112.921 33.5699C113.251 33.4966 113.727 33.1116 114.351 32.4149C114.974 31.7183 115.671 30.8566 116.441 29.8299C117.211 28.8033 118.017 27.6849 118.861 26.4749C119.704 25.2283 120.492 24.0366 121.226 22.8999C121.959 21.7633 122.601 20.7549 123.151 19.8749C123.737 18.9583 124.141 18.2983 124.361 17.8949C124.581 17.5649 124.947 17.4183 125.461 17.4549C125.974 17.4549 126.506 17.5833 127.056 17.8399C127.606 18.0599 128.064 18.3533 128.431 18.7199C128.834 19.0866 128.999 19.4349 128.926 19.7649C128.816 20.5349 128.614 21.4333 128.321 22.4599C128.064 23.4866 127.771 24.5499 127.441 25.6499C127.111 26.7133 126.799 27.7399 126.506 28.7299C126.212 29.6833 125.974 30.4899 125.791 31.1499C127.147 30.1599 128.284 29.3716 129.201 28.7849C130.117 28.1616 131.089 27.5566 132.116 26.9699ZM107.311 51.1699C107.897 50.7299 108.521 50.1799 109.181 49.5199C109.841 48.8966 110.482 48.1999 111.106 47.4299C111.766 46.6599 112.389 45.8716 112.976 45.0649C113.562 44.2583 114.076 43.4699 114.516 42.6999C113.856 43.3233 113.104 44.0566 112.261 44.8999C111.454 45.7066 110.684 46.5133 109.951 47.3199C109.254 48.1266 108.649 48.8783 108.136 49.5749C107.622 50.2716 107.347 50.8033 107.311 51.1699Z" fill="#FF968F"/>
<path d="M171.393 6.78492C170.477 6.78492 169.432 7.18826 168.258 7.99493C167.085 8.80159 165.893 9.88326 164.683 11.2399C163.51 12.5599 162.355 14.0816 161.218 15.8049C160.082 17.4916 159.092 19.2149 158.248 20.9749C157.405 22.7349 156.763 24.4399 156.323 26.0899C155.883 27.7399 155.737 29.1883 155.883 30.4349C155.92 30.9116 156.067 31.3333 156.323 31.6999C156.617 32.0299 156.965 32.2683 157.368 32.4149C157.772 32.5616 158.212 32.6166 158.688 32.5799C159.202 32.5066 159.733 32.3233 160.283 32.0299C160.063 32.5799 159.605 33.0383 158.908 33.4049C158.212 33.7716 157.423 33.9916 156.543 34.0649C155.7 34.1383 154.838 34.0649 153.958 33.8449C153.078 33.5883 152.327 33.1299 151.703 32.4699C151.117 31.8099 150.732 30.9299 150.548 29.8299C150.365 28.6933 150.548 27.2999 151.098 25.6499C151.612 24.0366 152.29 22.3683 153.133 20.6449C153.977 18.8849 154.93 17.1983 155.993 15.5849C157.093 13.9349 158.285 12.3949 159.568 10.9649C160.852 9.53493 162.19 8.28826 163.583 7.22493C165.013 6.12493 166.462 5.28159 167.928 4.69493C169.395 4.10826 170.862 3.83326 172.328 3.86993C173.758 3.94326 174.84 4.32826 175.573 5.02492C176.307 5.72159 176.802 6.63826 177.058 7.77493C177.315 8.87493 177.352 10.1583 177.168 11.6249C177.022 13.0549 176.747 14.5399 176.343 16.0799C175.94 17.6199 175.445 19.1599 174.858 20.6999C174.308 22.2399 173.777 23.6699 173.263 24.9899C172.933 25.7966 172.548 26.7683 172.108 27.9049C171.668 29.0416 171.21 30.2516 170.733 31.5349C170.293 32.8183 169.853 34.1199 169.413 35.4399C168.973 36.7599 168.588 37.9883 168.258 39.1249C167.928 40.2616 167.69 41.2699 167.543 42.1499C167.397 43.0299 167.397 43.6716 167.543 44.0749C167.727 44.6983 168.075 44.7716 168.588 44.2949C169.102 43.7816 169.725 42.9016 170.458 41.6549C171.228 40.4083 172.072 38.8683 172.988 37.0349C173.905 35.1649 174.84 33.1849 175.793 31.0949C176.747 29.0049 177.682 26.8599 178.598 24.6599C179.515 22.4599 180.358 20.3883 181.128 18.4449C181.935 16.5016 182.632 14.7599 183.218 13.2199C183.842 11.6799 184.282 10.5066 184.538 9.69993C184.685 9.29659 184.96 9.03993 185.363 8.92993C185.803 8.81993 186.28 8.80159 186.793 8.87493C187.307 8.94826 187.838 9.11326 188.388 9.36993C188.975 9.62659 189.47 9.91993 189.873 10.2499C190.277 10.5799 190.57 10.9466 190.753 11.3499C190.937 11.7166 190.918 12.0833 190.698 12.4499C189.708 14.7966 188.81 17.2166 188.003 19.7099C187.233 22.1666 186.555 24.5499 185.968 26.8599C185.418 29.1699 184.96 31.3333 184.593 33.3499C184.227 35.3666 183.952 37.1083 183.768 38.5749C183.622 40.0049 183.585 41.1049 183.658 41.8749C183.732 42.6449 183.933 42.9199 184.263 42.6999C185.107 42.1133 186.078 41.0866 187.178 39.6199C188.315 38.1533 189.47 36.4299 190.643 34.4499C191.853 32.4333 193.045 30.2516 194.218 27.9049C195.428 25.5216 196.528 23.1383 197.518 20.7549C198.508 18.3349 199.352 16.0066 200.048 13.7699C200.745 11.4966 201.203 9.47993 201.423 7.71993C201.68 5.92326 201.625 4.45659 201.258 3.31993C200.928 2.18326 200.213 1.54159 199.113 1.39493C199.627 0.918259 200.397 0.808259 201.423 1.06493C202.487 1.28493 203.477 1.83493 204.393 2.71493C205.347 3.55826 206.08 4.69493 206.593 6.12493C207.143 7.51826 207.162 9.14993 206.648 11.0199C206.135 12.8899 205.328 15.1266 204.228 17.7299C203.165 20.3333 201.937 23.0466 200.543 25.8699C199.15 28.6566 197.665 31.4249 196.088 34.1749C194.548 36.8883 193.063 39.3266 191.633 41.4899C190.203 43.6533 188.902 45.3949 187.728 46.7149C186.555 48.0349 185.657 48.6766 185.033 48.6399C184.227 48.6033 183.438 48.4383 182.668 48.1449C181.898 47.8883 181.183 47.5033 180.523 46.9899C179.9 46.5133 179.35 45.9449 178.873 45.2849C178.433 44.6249 178.14 43.8916 177.993 43.0849C177.883 42.5349 177.865 41.7283 177.938 40.6649C178.048 39.5649 178.195 38.4099 178.378 37.1999C178.562 35.9899 178.782 34.7983 179.038 33.6249C179.295 32.4149 179.515 31.4066 179.698 30.5999C179.258 31.5166 178.745 32.6349 178.158 33.9549C177.572 35.2749 176.948 36.6499 176.288 38.0799C175.665 39.5099 175.005 40.9399 174.308 42.3699C173.612 43.7633 172.915 45.0283 172.218 46.1649C171.558 47.3016 170.88 48.2183 170.183 48.9149C169.523 49.6116 168.9 49.9783 168.313 50.0149C167.47 50.0516 166.663 49.8866 165.893 49.5199C165.16 49.1899 164.5 48.7316 163.913 48.1449C163.327 47.5583 162.832 46.8799 162.428 46.1099C162.025 45.3399 161.768 44.5333 161.658 43.6899C161.585 43.1033 161.658 42.2966 161.878 41.2699C162.135 40.2433 162.465 39.0883 162.868 37.8049C163.272 36.4849 163.73 35.1099 164.243 33.6799C164.793 32.2499 165.325 30.8566 165.838 29.4999C166.388 28.1433 166.902 26.8966 167.378 25.7599C167.855 24.5866 168.258 23.6149 168.588 22.8449C169.248 21.1949 169.927 19.4349 170.623 17.5649C171.32 15.6583 171.852 13.9166 172.218 12.3399C172.622 10.7633 172.787 9.44326 172.713 8.37993C172.64 7.31659 172.2 6.78492 171.393 6.78492Z" fill="#FF968F"/>
<path d="M219.671 26.0899C219.817 25.9433 220.001 25.8883 220.221 25.9249C220.477 25.9616 220.716 26.0533 220.936 26.1999C221.156 26.3466 221.321 26.5483 221.431 26.8049C221.541 27.0249 221.522 27.2633 221.376 27.5199C220.899 28.9499 220.221 30.3799 219.341 31.8099C218.497 33.2033 217.526 34.5233 216.426 35.7699C215.326 37.0166 214.171 38.1533 212.961 39.1799C211.751 40.2066 210.559 41.0499 209.386 41.7099C208.836 42.0033 208.249 42.1133 207.626 42.0399C207.002 41.9666 206.379 41.8016 205.756 41.5449C205.132 41.2516 204.564 40.9216 204.051 40.5549C203.537 40.1883 203.116 39.8399 202.786 39.5099C202.089 38.7766 201.704 37.8049 201.631 36.5949C201.557 35.3483 201.704 34.0099 202.071 32.5799C202.401 31.1499 202.914 29.6649 203.611 28.1249C204.307 26.5849 205.077 25.1366 205.921 23.7799C206.801 22.4233 207.717 21.2316 208.671 20.2049C209.624 19.1783 210.522 18.4266 211.366 17.9499C211.879 17.6933 212.356 17.5649 212.796 17.5649C213.236 17.5283 213.694 17.6016 214.171 17.7849C214.647 17.9316 215.124 18.1699 215.601 18.4999C216.114 18.7933 216.682 19.1233 217.306 19.4899C218.186 20.0399 218.589 20.7366 218.516 21.5799C218.516 21.9833 218.351 22.6983 218.021 23.7249C217.727 24.7516 217.287 25.8333 216.701 26.9699C216.151 28.0699 215.454 29.1149 214.611 30.1049C213.804 31.0583 212.887 31.6999 211.861 32.0299C211.127 32.2133 210.486 32.2683 209.936 32.1949C209.386 32.1216 208.781 31.9383 208.121 31.6449C207.937 32.0116 207.736 32.5616 207.516 33.2949C207.296 33.9916 207.131 34.7066 207.021 35.4399C206.911 36.1733 206.874 36.8333 206.911 37.4199C206.947 37.9699 207.167 38.2816 207.571 38.3549C208.157 38.4649 208.982 38.1533 210.046 37.4199C211.146 36.6866 212.282 35.7333 213.456 34.5599C214.629 33.3499 215.784 31.9933 216.921 30.4899C218.057 28.9866 218.974 27.5199 219.671 26.0899ZM214.171 22.0199C213.804 22.2766 213.327 22.7716 212.741 23.5049C212.191 24.2016 211.641 24.9533 211.091 25.7599C210.577 26.5666 210.119 27.3183 209.716 28.0149C209.349 28.7116 209.166 29.1516 209.166 29.3349C209.826 29.4449 210.431 29.2433 210.981 28.7299C211.567 28.2166 212.081 27.5749 212.521 26.8049C212.997 25.9983 213.364 25.1549 213.621 24.2749C213.914 23.3949 214.097 22.6433 214.171 22.0199Z" fill="#FF968F"/>
<path d="M239.05 7.05993C239.526 6.80326 240.095 6.78493 240.755 7.00493C241.415 7.18826 242.001 7.49993 242.515 7.93993C243.065 8.34326 243.45 8.80159 243.67 9.31493C243.89 9.79159 243.816 10.1766 243.45 10.4699C241.983 11.6066 240.516 13.3116 239.05 15.5849C237.62 17.8216 236.3 20.2966 235.09 23.0099C233.88 25.7233 232.835 28.5099 231.955 31.3699C231.111 34.2299 230.543 36.8516 230.25 39.2349C229.993 41.6183 230.066 43.5983 230.47 45.1749C230.91 46.7149 231.79 47.5399 233.11 47.6499C232.816 47.9799 232.376 48.1816 231.79 48.2549C231.203 48.3649 230.561 48.2916 229.865 48.0349C229.205 47.8149 228.545 47.3933 227.885 46.7699C227.261 46.1466 226.748 45.3033 226.345 44.2399C225.941 43.1766 225.703 41.8933 225.63 40.3899C225.556 38.8499 225.758 37.0349 226.235 34.9449C226.235 34.7983 226.216 34.7249 226.18 34.7249C226.143 34.6883 226.088 34.7433 226.015 34.8899C225.721 35.4033 225.391 35.9533 225.025 36.5399C224.658 37.1266 224.255 37.6949 223.815 38.2449C223.411 38.7583 223.008 39.2166 222.605 39.6199C222.238 40.0233 221.908 40.2799 221.615 40.3899C221.175 40.5366 220.643 40.5916 220.02 40.5549C219.433 40.5183 218.865 40.3899 218.315 40.1699C217.728 39.9133 217.233 39.5649 216.83 39.1249C216.426 38.6849 216.206 38.1349 216.17 37.4749C216.133 36.5949 216.243 35.5499 216.5 34.3399C216.72 33.1299 217.068 31.8649 217.545 30.5449C217.985 29.2249 218.535 27.9049 219.195 26.5849C219.855 25.2649 220.57 24.0916 221.34 23.0649C222.146 22.0016 222.99 21.1399 223.87 20.4799C224.786 19.7833 225.721 19.3983 226.675 19.3249C227.408 19.2883 228.086 19.4166 228.71 19.7099C229.37 20.0033 229.993 20.2966 230.58 20.5899C230.726 20.1866 230.983 19.6183 231.35 18.8849C231.716 18.1149 232.138 17.2716 232.615 16.3549C233.091 15.4383 233.605 14.4849 234.155 13.4949C234.741 12.5049 235.31 11.5699 235.86 10.6899C236.446 9.80993 237.015 9.05826 237.565 8.43493C238.115 7.77493 238.61 7.31659 239.05 7.05993ZM228.545 24.6049C228.691 24.1283 228.691 23.7433 228.545 23.4499C228.435 23.1199 228.105 23.0466 227.555 23.2299C227.041 23.4133 226.491 23.8349 225.905 24.4949C225.355 25.1549 224.805 25.9433 224.255 26.8599C223.705 27.7399 223.191 28.6749 222.715 29.6649C222.275 30.6549 221.908 31.5899 221.615 32.4699C221.358 33.3133 221.193 34.0466 221.12 34.6699C221.083 35.2933 221.211 35.6599 221.505 35.7699C221.651 35.8433 221.926 35.6599 222.33 35.2199C222.733 34.7799 223.173 34.1933 223.65 33.4599C224.163 32.7266 224.695 31.9199 225.245 31.0399C225.795 30.1233 226.29 29.2433 226.73 28.3999C227.206 27.5199 227.61 26.7499 227.94 26.0899C228.27 25.3933 228.471 24.8983 228.545 24.6049Z" fill="#FF968F"/>
<path d="M256.935 7.05993C257.412 6.80326 257.98 6.78493 258.64 7.00493C259.3 7.18826 259.887 7.49993 260.4 7.93993C260.95 8.34326 261.335 8.80159 261.555 9.31493C261.775 9.79159 261.702 10.1766 261.335 10.4699C259.869 11.6066 258.402 13.3116 256.935 15.5849C255.505 17.8216 254.185 20.2966 252.975 23.0099C251.765 25.7233 250.72 28.5099 249.84 31.3699C248.997 34.2299 248.429 36.8516 248.135 39.2349C247.879 41.6183 247.952 43.5983 248.355 45.1749C248.795 46.7149 249.675 47.5399 250.995 47.6499C250.702 47.9799 250.262 48.1816 249.675 48.2549C249.089 48.3649 248.447 48.2916 247.75 48.0349C247.09 47.8149 246.43 47.3933 245.77 46.7699C245.147 46.1466 244.634 45.3033 244.23 44.2399C243.827 43.1766 243.589 41.8933 243.515 40.3899C243.442 38.8499 243.644 37.0349 244.12 34.9449C244.12 34.7983 244.102 34.7249 244.065 34.7249C244.029 34.6883 243.974 34.7433 243.9 34.8899C243.607 35.4033 243.277 35.9533 242.91 36.5399C242.544 37.1266 242.14 37.6949 241.7 38.2449C241.297 38.7583 240.894 39.2166 240.49 39.6199C240.124 40.0233 239.794 40.2799 239.5 40.3899C239.06 40.5366 238.529 40.5916 237.905 40.5549C237.319 40.5183 236.75 40.3899 236.2 40.1699C235.614 39.9133 235.119 39.5649 234.715 39.1249C234.312 38.6849 234.092 38.1349 234.055 37.4749C234.019 36.5949 234.129 35.5499 234.385 34.3399C234.605 33.1299 234.954 31.8649 235.43 30.5449C235.87 29.2249 236.42 27.9049 237.08 26.5849C237.74 25.2649 238.455 24.0916 239.225 23.0649C240.032 22.0016 240.875 21.1399 241.755 20.4799C242.672 19.7833 243.607 19.3983 244.56 19.3249C245.294 19.2883 245.972 19.4166 246.595 19.7099C247.255 20.0033 247.879 20.2966 248.465 20.5899C248.612 20.1866 248.869 19.6183 249.235 18.8849C249.602 18.1149 250.024 17.2716 250.5 16.3549C250.977 15.4383 251.49 14.4849 252.04 13.4949C252.627 12.5049 253.195 11.5699 253.745 10.6899C254.332 9.80993 254.9 9.05826 255.45 8.43493C256 7.77493 256.495 7.31659 256.935 7.05993ZM246.43 24.6049C246.577 24.1283 246.577 23.7433 246.43 23.4499C246.32 23.1199 245.99 23.0466 245.44 23.2299C244.927 23.4133 244.377 23.8349 243.79 24.4949C243.24 25.1549 242.69 25.9433 242.14 26.8599C241.59 27.7399 241.077 28.6749 240.6 29.6649C240.16 30.6549 239.794 31.5899 239.5 32.4699C239.244 33.3133 239.079 34.0466 239.005 34.6699C238.969 35.2933 239.097 35.6599 239.39 35.7699C239.537 35.8433 239.812 35.6599 240.215 35.2199C240.619 34.7799 241.059 34.1933 241.535 33.4599C242.049 32.7266 242.58 31.9199 243.13 31.0399C243.68 30.1233 244.175 29.2433 244.615 28.3999C245.092 27.5199 245.495 26.7499 245.825 26.0899C246.155 25.3933 246.357 24.8983 246.43 24.6049Z" fill="#FF968F"/>
<path d="M265.196 26.5299C265.38 26.2733 265.6 26.1449 265.856 26.1449C266.113 26.1083 266.333 26.1449 266.516 26.2549C266.736 26.3649 266.901 26.5116 267.011 26.6949C267.158 26.8783 267.176 27.0616 267.066 27.2449C266.663 28.0883 266.076 29.1883 265.306 30.5449C264.536 31.9016 263.693 33.2583 262.776 34.6149C261.86 35.9716 260.906 37.1999 259.916 38.2999C258.963 39.3999 258.101 40.1149 257.331 40.4449C256.855 40.6283 256.305 40.6833 255.681 40.6099C255.058 40.5366 254.471 40.3716 253.921 40.1149C253.371 39.8216 252.913 39.4549 252.546 39.0149C252.18 38.5383 252.015 38.0066 252.051 37.4199C252.088 36.6866 252.253 35.7149 252.546 34.5049C252.803 33.2583 253.17 31.9566 253.646 30.5999C254.086 29.2066 254.581 27.8499 255.131 26.5299C255.681 25.1733 256.25 24.0183 256.836 23.0649C257.02 22.7716 257.386 22.6249 257.936 22.6249C258.523 22.6249 259.091 22.7349 259.641 22.9549C260.191 23.1749 260.65 23.4683 261.016 23.8349C261.383 24.2016 261.475 24.5866 261.291 24.9899C259.568 28.2899 258.395 30.8749 257.771 32.7449C257.148 34.5783 256.946 35.7699 257.166 36.3199C257.313 36.7233 257.625 36.7783 258.101 36.4849C258.578 36.1549 259.165 35.5499 259.861 34.6699C260.595 33.7899 261.42 32.6533 262.336 31.2599C263.253 29.8666 264.206 28.2899 265.196 26.5299ZM261.731 20.7549C261.511 21.0483 261.181 21.2133 260.741 21.2499C260.338 21.2866 259.916 21.2499 259.476 21.1399C259.073 20.9933 258.706 20.7916 258.376 20.5349C258.083 20.2783 257.955 20.0033 257.991 19.7099C258.065 19.1966 258.175 18.6649 258.321 18.1149C258.505 17.5283 258.688 16.9966 258.871 16.5199C259.055 16.0066 259.238 15.5483 259.421 15.1449C259.605 14.7416 259.751 14.4299 259.861 14.2099C260.081 13.8799 260.485 13.7149 261.071 13.7149C261.658 13.6783 262.226 13.7699 262.776 13.9899C263.363 14.2099 263.84 14.5033 264.206 14.8699C264.573 15.2366 264.646 15.6033 264.426 15.9699C264.316 16.1899 264.133 16.5199 263.876 16.9599C263.656 17.3633 263.418 17.8033 263.161 18.2799C262.905 18.7199 262.648 19.1599 262.391 19.5999C262.135 20.0399 261.915 20.4249 261.731 20.7549Z" fill="#FF968F"/>
<path d="M285.864 26.8599C285.974 26.6033 286.158 26.4933 286.414 26.5299C286.708 26.5666 286.983 26.6583 287.239 26.8049C287.533 26.9516 287.771 27.1349 287.954 27.3549C288.138 27.5383 288.211 27.6849 288.174 27.7949C287.661 28.8583 287.019 30.0316 286.249 31.3149C285.516 32.5983 284.709 33.8449 283.829 35.0549C282.986 36.2283 282.106 37.2916 281.189 38.2449C280.309 39.1983 279.484 39.8766 278.714 40.2799C278.201 40.5366 277.614 40.6466 276.954 40.6099C276.294 40.5366 275.652 40.3899 275.029 40.1699C274.406 39.9499 273.856 39.6566 273.379 39.2899C272.903 38.9233 272.628 38.5566 272.554 38.1899C272.408 37.5666 272.408 36.7233 272.554 35.6599C272.701 34.5966 272.903 33.5333 273.159 32.4699C273.453 31.4066 273.728 30.4533 273.984 29.6099C274.278 28.7299 274.479 28.1616 274.589 27.9049C273.856 28.5283 273.031 29.4266 272.114 30.5999C271.198 31.7733 270.281 33.0199 269.364 34.3399C268.484 35.6599 267.659 36.9616 266.889 38.2449C266.156 39.5283 265.587 40.5916 265.184 41.4349C265.001 41.7649 264.634 41.9483 264.084 41.9849C263.534 41.9849 262.984 41.8933 262.434 41.7099C261.884 41.5266 261.408 41.2699 261.004 40.9399C260.564 40.6099 260.399 40.2799 260.509 39.9499C260.729 39.0699 261.059 37.9149 261.499 36.4849C261.939 35.0183 262.453 33.4416 263.039 31.7549C263.626 30.0316 264.286 28.2716 265.019 26.4749C265.753 24.6783 266.559 23.0099 267.439 21.4699C267.696 20.9566 268.099 20.6999 268.649 20.6999C269.236 20.6999 269.804 20.8283 270.354 21.0849C270.904 21.3416 271.344 21.6716 271.674 22.0749C272.041 22.4783 272.169 22.8266 272.059 23.1199C271.693 23.8899 271.289 24.6783 270.849 25.4849C270.446 26.2549 270.043 26.9883 269.639 27.6849C269.273 28.3449 268.943 28.9316 268.649 29.4449C268.393 29.9583 268.246 30.3066 268.209 30.4899C268.796 29.6466 269.419 28.8033 270.079 27.9599C270.776 27.1166 271.454 26.3283 272.114 25.5949C272.811 24.8616 273.508 24.2016 274.204 23.6149C274.901 23.0283 275.579 22.5333 276.239 22.1299C276.679 21.8733 277.211 21.7999 277.834 21.9099C278.494 22.0199 279.099 22.2399 279.649 22.5699C280.199 22.8999 280.621 23.3033 280.914 23.7799C281.244 24.2199 281.318 24.6599 281.134 25.0999C280.841 25.8333 280.456 26.7499 279.979 27.8499C279.503 28.9133 279.044 30.0499 278.604 31.2599C278.164 32.4333 277.779 33.5699 277.449 34.6699C277.119 35.7699 276.954 36.7049 276.954 37.4749C277.651 37.0716 278.402 36.5033 279.209 35.7699C280.016 35.0366 280.804 34.1933 281.574 33.2399C282.381 32.2866 283.151 31.2599 283.884 30.1599C284.618 29.0599 285.278 27.9599 285.864 26.8599Z" fill="#FF968F"/>
<path d="M306.873 26.9699C307.24 26.7866 307.496 26.8233 307.643 27.0799C307.826 27.2999 307.881 27.6116 307.808 28.0149C307.771 28.4183 307.625 28.8766 307.368 29.3899C307.148 29.8666 306.818 30.2516 306.378 30.5449C304.985 31.3883 303.646 32.2499 302.363 33.1299C301.116 34.0099 299.925 34.9266 298.788 35.8799C298.348 36.2099 297.963 36.6866 297.633 37.3099C296.936 38.8133 296.075 40.4999 295.048 42.3699C294.058 44.2399 292.995 46.0366 291.858 47.7599C290.721 49.5199 289.566 51.0416 288.393 52.3249C287.256 53.6083 286.175 54.4149 285.148 54.7449C284.708 54.8916 284.048 54.8549 283.168 54.6349C282.251 54.4149 281.426 54.0299 280.693 53.4799C279.923 52.9299 279.373 52.2333 279.043 51.3899C278.713 50.5466 278.878 49.5933 279.538 48.5299C280.381 47.1733 281.536 45.7799 283.003 44.3499C284.47 42.8833 285.936 41.5266 287.403 40.2799C288.87 39.0333 290.171 37.9333 291.308 36.9799C292.481 36.0266 293.16 35.3666 293.343 34.9999C293.746 34.2666 294.131 33.4233 294.498 32.4699C294.865 31.4799 295.176 30.6183 295.433 29.8849C294.92 30.5083 294.333 31.2049 293.673 31.9749C293.05 32.7449 292.371 33.5149 291.638 34.2849C290.941 35.0549 290.226 35.7699 289.493 36.4299C288.76 37.0899 288.063 37.6399 287.403 38.0799C287 38.3366 286.468 38.4099 285.808 38.2999C285.148 38.1899 284.525 37.9699 283.938 37.6399C283.315 37.3099 282.801 36.9066 282.398 36.4299C281.995 35.9166 281.848 35.4033 281.958 34.8899C282.215 33.5699 282.673 32.1949 283.333 30.7649C283.993 29.2983 284.763 27.9049 285.643 26.5849C286.56 25.2283 287.531 23.9816 288.558 22.8449C289.585 21.7083 290.611 20.7733 291.638 20.0399C292.298 19.5633 292.903 19.2883 293.453 19.2149C294.003 19.1416 294.516 19.1966 294.993 19.3799C295.47 19.5266 295.928 19.7649 296.368 20.0949C296.845 20.4249 297.321 20.7733 297.798 21.1399C297.945 20.9566 298.146 20.6633 298.403 20.2599C298.696 19.8566 298.916 19.5999 299.063 19.4899C299.393 19.2333 299.796 19.1233 300.273 19.1599C300.786 19.1599 301.263 19.2699 301.703 19.4899C302.18 19.6733 302.565 19.9299 302.858 20.2599C303.151 20.5533 303.28 20.8649 303.243 21.1949C303.096 21.9649 302.895 22.8083 302.638 23.7249C302.381 24.6049 302.106 25.5033 301.813 26.4199C301.556 27.3366 301.281 28.2166 300.988 29.0599C300.731 29.9033 300.511 30.6366 300.328 31.2599C301.685 30.3066 302.858 29.4999 303.848 28.8399C304.875 28.1799 305.883 27.5566 306.873 26.9699ZM282.178 51.1699C283.388 50.2899 284.598 49.0616 285.808 47.4849C287.055 45.9083 288.136 44.3499 289.053 42.8099C288.393 43.4699 287.66 44.2033 286.853 45.0099C286.083 45.8166 285.35 46.6049 284.653 47.3749C283.956 48.1816 283.388 48.9149 282.948 49.5749C282.471 50.2716 282.215 50.8033 282.178 51.1699ZM295.158 25.2099C295.341 24.9166 295.488 24.5866 295.598 24.2199C295.708 23.8166 295.745 23.4866 295.708 23.2299C295.708 22.9733 295.598 22.8266 295.378 22.7899C295.195 22.7533 294.865 22.9366 294.388 23.3399C293.655 23.9633 292.921 24.7149 292.188 25.5949C291.491 26.4383 290.831 27.3183 290.208 28.2349C289.585 29.1516 289.035 30.0316 288.558 30.8749C288.081 31.7183 287.733 32.4516 287.513 33.0749C287.44 33.4049 287.513 33.5699 287.733 33.5699C287.953 33.5699 288.32 33.3499 288.833 32.9099C289.383 32.4699 289.988 31.8649 290.648 31.0949C291.345 30.3249 292.078 29.4449 292.848 28.4549C293.655 27.4283 294.425 26.3466 295.158 25.2099Z" fill="#FF968F"/>
</svg>
