<svg width="24" height="24" viewBox="0 0 24 24" fill="none" xmlns="http://www.w3.org/2000/svg">
<g clip-path="url(#clip0_2025_9000)">
<path d="M20 17C20.2549 17.0003 20.5 17.0979 20.6854 17.2728C20.8707 17.4478 20.9822 17.687 20.9972 17.9414C21.0121 18.1958 20.9293 18.4464 20.7657 18.6418C20.6021 18.8373 20.3701 18.9629 20.117 18.993L20 19H4C3.74512 18.9997 3.49997 18.9021 3.31463 18.7272C3.1293 18.5522 3.01777 18.313 3.00283 18.0586C2.98789 17.8042 3.07067 17.5536 3.23426 17.3582C3.39786 17.1627 3.6299 17.0371 3.883 17.007L4 17H20ZM20 11C20.2652 11 20.5196 11.1054 20.7071 11.2929C20.8946 11.4804 21 11.7348 21 12C21 12.2652 20.8946 12.5196 20.7071 12.7071C20.5196 12.8946 20.2652 13 20 13H4C3.73478 13 3.48043 12.8946 3.29289 12.7071C3.10536 12.5196 3 12.2652 3 12C3 11.7348 3.10536 11.4804 3.29289 11.2929C3.48043 11.1054 3.73478 11 4 11H20ZM20 5C20.2652 5 20.5196 5.10536 20.7071 5.29289C20.8946 5.48043 21 5.73478 21 6C21 6.26522 20.8946 6.51957 20.7071 6.70711C20.5196 6.89464 20.2652 7 20 7H4C3.73478 7 3.48043 6.89464 3.29289 6.70711C3.10536 6.51957 3 6.26522 3 6C3 5.73478 3.10536 5.48043 3.29289 5.29289C3.48043 5.10536 3.73478 5 4 5H20Z" fill="#7A7A7A" style="mix-blend-mode:multiply"/>
</g>
<defs>
<clipPath id="clip0_2025_9000">
<rect width="24" height="24" fill="white"/>
</clipPath>
</defs>
</svg>
